<?xml version="1.0" encoding="utf-8"?>
<!-- Generator: Adobe Illustrator 21.1.0, SVG Export Plug-In . SVG Version: 6.00 Build 0)  -->
<svg version="1.1" id="图层_1" xmlns="http://www.w3.org/2000/svg" xmlns:xlink="http://www.w3.org/1999/xlink" x="0px" y="0px"
	 viewBox="0 0 750 290" style="enable-background:new 0 0 750 290;" xml:space="preserve">
<style type="text/css">
	.st0{fill:#DE2525;}
	.st1{fill:#E55927;}
	.st2{fill:#6AB82D;}
</style>
<g>
	<g>
		<path class="st0" d="M11.6,85.2c-0.4,0.2-0.8,0.4-1,0.7c-0.6,0.7-1.3,0.6-1.8,0c-0.8-1.1-1.6-2.2-2.4-3.3
			c-0.7-1.1-1.2-2.2-2.6-2.9c-0.1-0.1-0.3-0.2-0.3-0.3c-0.3-1.5-1.7-2.5-2.6-3.7c-0.4-0.6-0.8-1.2,0.1-1.7c0.3-0.2,0.9-0.3,1.2-0.1
			c0.6,0.2,1,0.1,1.5-0.2c0.6-0.4,1.4-0.7,2.2-0.7c2.6-0.1,5.1,0,7.7,0.7c-0.6,1.1-1.4,1.9-2.5,2.5c-1,0.5-1.2,1.2-0.9,2.1
			c0.2,0.7,0.6,0.7,1.2,0.3c0.4-0.3,0.7-0.6,1-1c0.7-1,1.3-2,2-3.1c0.3-0.5,0.7-0.7,1.4-0.4c1,0.4,2.1,0.7,3.2,1.1
			c-0.8,1.8-3.6,2.1-4,4c0.9,0.4,1.4,0,1.9-0.4c0.7-0.6,1.2-1.3,2-1.9c0.9-0.7,1.7-1.6,3.2-1.4c0.4,0.1,0.7,0.3,1.1,0.4
			c-0.2,0.3-0.3,0.6-0.5,0.8c-1.8,1.8-3.3,3.6-4.4,5.8c-0.2,0.5-0.2,1.1-0.3,1.7c0.2,0,0.3,0.1,0.5,0.1c0.3-0.5,0.6-0.9,0.7-1.4
			c0.9-2.5,2.7-4.5,5-6.1c0.3-0.2,0.8-0.2,1.2-0.1c1.3,0.3,2.5,0.7,3.7,1.2c1.2,0.4,1.3,0.7,0.3,1.4c-1.6,1.1-3.4,2.2-5,3.3
			c-2.4,1.8-3.4,4.2-3.6,6.8c0,0.1,0,0.3,0.1,0.7c0.4-0.5,0.6-0.8,0.9-1.2c1.6-2.2,3.1-4.4,4.8-6.5c0.5-0.6,1.3-1.1,2-1.6
			c1.8-1.3,5.1-0.9,6.7,0.5c1.9,1.7,1.9,1.7,0.7,3.8c-0.2,0.3-0.3,0.6-0.2,1c0.3-0.2,0.6-0.3,0.8-0.5c0.4-0.3,0.6-0.8,1-1.1
			c0.2-0.2,0.7-0.2,1-0.4c0,0.3,0.2,0.7,0.1,0.9c-0.3,0.5-0.7,1-1.1,1.5c-0.2,0.3-0.5,0.6-0.7,0.8c0.1,0.1,0.2,0.2,0.3,0.2
			c0.9-0.8,1.9-1.7,2.6-2.3c0.8,0.3,1.3,0.5,1.8,0.6c1,0.3,1.4,1.1,1.5,1.8c0.1,0.7-0.1,1.5-0.2,2.2c0,0.2-0.1,0.5-0.1,0.7
			c0.1,0,0.2,0.1,0.3,0.1c0.4-0.4,0.7-0.7,1.1-1.1c0.6-0.5,1.1-1.1,1.7-1.5c0.6-0.4,1.3-0.5,1.7,0.3c0.4,0.7,1.7,1,0.9,2.2
			c0.2,0,0.4,0,0.6-0.1c0.2-0.3,0.4-0.5,0.5-0.8c0.2-0.6,0.5-0.9,1.3-0.8c0.8,0.1,1.6,0,2.3,0.3c1.3,0.5,2.5,0.4,3.8,0.2
			c1.2-0.2,2.4-0.2,3.2,1.3c0.4-0.2,0.8-0.5,1.3-0.6c1.1-0.3,1.5,0.1,1.6,1c0.3,2.7-0.8,5.1-2.1,7.4c-0.6,1.1-1.6,2.1-2.3,3.2
			c-0.4,0.6-1,1.1-0.4,2c0.4-0.4,0.7-0.8,0.9-1.1c2-3.6,4-7.1,6-10.7c0.1-0.1,0.1-0.2,0.1-0.3c0.4-1.3,0.5-1.4,1.9-0.7
			c2.2,1.1,4.6,2,6.6,3.3c3.3,2.2,7,3.8,9.9,6.4c1.5,1.3,2.4,2.9,2.1,4.8c-0.1,0.4-0.3,0.8-0.5,1.4c-1-1.2,0.6-2.6-1.1-3.6
			c-0.1,0.5-0.2,0.8-0.2,1.2c-0.1,0.4-0.1,0.8-0.1,1.2c-0.4-0.1-0.8-0.2-1.3-0.3c-0.3,0.3-0.6,0.7-1,1c-1,0.9-2.2,1-3.5,0.5
			c-0.6-0.2-1.1-0.2-1.4,0.2c-0.8,1.2-2.1,0.8-3.2,0.8c-2.3,0-4.6-0.1-6.8,0.8c-0.6,0.2-1.2,0.3-1.8,0.4c-0.1-0.1-0.2-0.2-0.3-0.3
			c0.4-0.7,0.9-1.3,1.3-2c0.7-1.1,1.4-2.2,1.9-3.4c0.4-1,0.2-2-0.5-2.9c-0.1,0.3-0.2,0.7-0.3,1c-0.6,2.4-1.4,4.8-2.8,7
			c-0.5,0.8-1.1,1.2-2.3,1.2c-3.4,0.1-6.9,0.3-10.3,0.5c-3.1,0.2-6-0.3-8.9-0.9c-2.6-0.6-4.6-1.8-6.6-3.2c-2.6-1.7-5.7-2.6-8.8-3.5
			c-2.5-0.7-4.9-1.6-6.6-3.3c-0.7-0.7-1.1-1.5-1.6-2.3c-0.1-0.2-0.2-0.5-0.4-0.6c-2.6-1.8-4-4.3-5.7-6.6c-0.5-0.6-1-1.3-1.5-1.9
			c-0.5-0.6-0.6-1.1,0-1.6c0.1-0.1,0.2-0.3,0.3-0.5C11.8,85.3,11.7,85.3,11.6,85.2z M24,92.2c0.1,0,0.2,0.1,0.3,0.1
			c0.2-0.2,0.5-0.3,0.6-0.5c1.6-2.1,3.2-4.3,4.7-6.5c0.8-1.1,1-2.5,2.4-3.2c0.1,0,0.1-0.1,0.1-0.1c0-0.3,0.1-0.6,0.1-0.9
			c-0.3,0.1-0.7,0.1-0.9,0.3c-2.4,2.6-4.7,5.3-7.1,7.9c-0.2,0.2-0.2,0.6-0.1,0.7c0.7,0.4,0.4,0.9,0.1,1.4
			C24.1,91.6,24.1,91.9,24,92.2z M50.5,96.7c0.2-0.3,0.4-0.4,0.4-0.6c0.4-1.3,0.9-2.6,1.2-3.8c0.1-0.4,0-0.9-0.1-1.4
			c-0.1-0.3-0.5-0.5-0.7-0.7c-0.2,0.2-0.6,0.4-0.7,0.7c-0.3,1.6-0.5,3.2-0.7,4.9C50,96.1,50.3,96.3,50.5,96.7z M40.4,94.2
			c-0.1,0-0.1,0-0.2-0.1c-1.7,2.5-3.3,5.1-5,7.6c1.5,0.2,2.1-0.3,2.4-1.2c0.4-1,0.9-1.9,1.3-2.9C39.5,96.5,39.9,95.4,40.4,94.2z
			 M48.3,96.6c-0.1-0.1-0.2-0.1-0.3-0.2c-0.8,0.2-0.9,0.9-1.2,1.4c-0.3,0.5-0.3,1.2-0.7,1.5c-1.2,0.7-1.1,1.6-1.2,2.5
			c-0.1,0.6-0.1,1.2-0.2,1.7c0.1,0,0.2,0,0.3,0.1C46.1,101.3,47.2,98.9,48.3,96.6z M56.3,105.2c0.1,0.1,0.3,0.2,0.4,0.3
			c0.3-0.4,0.6-0.8,0.9-1.1c-0.1-0.1-0.3-0.1-0.4-0.2C56.9,104.5,56.6,104.9,56.3,105.2z"/>
		<path class="st0" d="M9.5,67.6c0.2,1-0.6,1.8,0.6,2.7c0.2-0.6,0.4-1.1,0.4-1.6c0.1-1.5,0.2-1.6,1.9-1.9c1.2-0.2,2.1-0.7,2.7-1.5
			c0.9-1.2,1.9-2.3,3.8-2.5c0.2,0,0.5-0.1,0.6-0.3c0.7-1.2,2.1-1.5,3.3-2.1c0.5-0.2,0.9-0.5,1.4-0.8c0.7-0.5,1.5-0.7,2.5-0.7
			c0.9,0,1.8-0.5,2.7-0.8c0.6-0.3,1.1-0.7,1.7-1c0.6-0.2,1.2-0.2,1.9-0.2c0.6-0.1,1.3-0.2,1.9-0.2c1.2,0,2.4-0.2,3.4-0.9
			c0.3-0.2,1-0.2,1.5-0.1c1.3,0.3,2.4,0.3,3.7-0.1c0.7-0.2,1.6-0.2,2.4-0.2c1-0.1,2-0.1,3.1-0.2c1.9-0.1,3.2,0.5,4,1.9
			c1.3,2.3,3.5,3.9,6.2,4.9c1.8,0.7,3.6,0.9,5.4,0.1c2.3-1,4.3-0.4,6.2,0.8c3.8,2.3,6.3,5.6,9.4,8.3c0.3,0.2,0.5,0.6,0.5,0.9
			c0,1.1,0.8,1.6,1.6,2.2c0.4,0.3,0.8,0.8,1.2,1.2c0.1,0.1,0.1,0.3,0.3,0.4c1.6,1.1,2.5,2.6,3.9,3.9c1.7,1.6,2.3,3.6,2.9,5.6
			c0.1,0.4-0.2,0.9-0.5,1.3c-0.7,0.9-1.5,1.8-2.2,2.7c-0.2,0.3-0.2,0.6-0.2,1c0.4,0,0.7,0.2,1.1,0.1c0.5-0.1,1.1-0.3,1.6-0.4
			c0.6-0.2,1.2-0.3,1.9-0.4c0.1,0.1,0.1,0.2,0.2,0.3c-0.4,0.2-0.7,0.4-1.1,0.6c-0.6,0.2-1.2,0.2-1.8,0.4c-0.3,0.1-0.5,0.5-0.7,0.7
			c0.4,0.1,0.8,0.3,1.1,0.3c0.5,0,1-0.3,1.5-0.4c0.3-0.1,0.5-0.1,1,0.1c-0.4,0.3-0.8,0.6-1.2,0.9c-1.4,0.9-1.5,1-1,2.4
			c0.1,0.2,0,0.4,0,0.7c-0.1,0.5-0.3,0.9-0.5,1.6c-0.6,0.2-1.6,0.5-2.6,0.8c0,0.1,0.1,0.3,0.1,0.4c0.5,0,1.1,0,1.6-0.1
			c0.4-0.1,0.8-0.3,1.3-0.4c0.2,0,0.4,0.2,0.6,0.3c-0.1,0.2-0.2,0.4-0.4,0.5c-0.8,0.3-1.6,0.5-2.4,0.8c-1.1,0.4-2.4,0.1-3.2-0.8
			c0.4-0.2,0.8-0.3,1.4-0.6c-0.5-0.2-0.8-0.3-1.1-0.4c-0.6-0.1-1.2-0.2-1.7-0.4c-1.1-0.4-2.5-0.5-1.9-2c0.1-0.4-0.2-0.9-0.4-1.3
			c-0.4-0.8-0.2-1.4,0.8-1.7c0.7-0.2,1.5-0.3,2.2-0.3c0.5,0,1.2,0,1.2-0.6c0-0.7-0.8-0.6-1.2-0.5c-0.9,0.2-1.7,0.4-2.5,0.8
			c-1.3,0.7-3,0.5-3.9-0.5c-1.7-1.8-0.9-2.6,1.2-3.1c1.6-0.4,3.3-0.5,4.9-0.7c0.7-0.1,1.1-0.2,0.9-0.9c-0.1-0.4,0-0.7-0.1-1.3
			c-0.6,0.1-1.2,0.2-1.8,0.4c-1.8,0.7-3.6,1.5-5.4,2.3c-1.8,0.7-1.8,0.7-3.3-0.6c0.2-0.2,0.4-0.4,0.6-0.6c0.1-0.2,0.2-0.5,0.2-0.7
			c-0.3,0-0.6-0.1-0.9-0.1c-0.5,0.1-1.2,0.4-1.3,0.2c-0.4-0.4-0.6-1-0.9-1.5c0.1-0.1,0.2-0.1,0.3-0.2c0.4,0.1,0.8,0.2,1.2,0.2
			c0.6,0.1,1.1,0,1-0.7c0-0.4,0.4-0.8,0.7-1.1c0.4-0.5,0.9-0.9,1.4-1.3c-0.1-0.1-0.2-0.2-0.3-0.4c-0.7,0.2-1.4,0.4-2,0.7
			c-0.9,0.4-1.7,0.9-2.5,1.4c-0.5,0.3-0.9,0.2-1.2-0.2c-0.2-0.2-0.7-0.3-1-0.5c-0.1,0.3-0.2,0.6-0.3,1c-1.6-0.4-2.3-1.2-1.9-2.7
			c0-0.2,0.2-0.3,0.3-0.4c0.6-0.7,1.4-1.3,1.7-2.1c0.8-2,2.3-3.7,3.8-5.4c0.1-0.1,0.3-0.3,0.4-0.4c0.1-0.4,0.5-1.1,0.3-1.2
			c-0.7-0.3-1.1,0.1-1.5,0.6c-1.7,2.2-3.4,4.5-5.1,6.8c-0.7,0.9-1.4,1.9-2.1,2.8c-0.3,0.4-0.5,1-1.3,0.7c-0.6-0.2-1.4-0.5-0.9-1.4
			c-0.5,0-0.8,0-1.4,0c0.3-0.2,0.5-0.3,0.6-0.5c0.3-0.2,0.5-0.5,0.8-0.8c-0.3-0.2-0.7-0.3-1-0.5c2.8-2.3,5.1-5,6.8-8.2
			c-1.1-0.2-1.6,0.3-1.9,0.8c-0.6,1.1-1.2,2.2-1.8,3.2c-0.5,0.8-1,1.5-1.5,2.3c-0.1,0-0.2-0.1-0.4-0.1c0.1-0.2,0.2-0.5,0.2-0.7
			c0-0.2-0.1-0.4-0.1-0.6C62.5,76,62.1,76,62,76.2c-0.5,0.7-1,1.5-1.4,2.2c-0.7,1.1-1.6,2-3.3,2.1c-1.5,0.1-1.9-0.4-1.4-1.5
			c1.1-2.4,2.3-4.8,3.5-7.2c0.3-0.6,0.9-1.1,1.2-1.6c0.1-0.3,0-0.7-0.1-1c-0.3,0.2-0.7,0.3-0.9,0.6c-1.3,2.4-2.5,4.8-3.7,7.2
			c-0.5,0.9-1,1.8-1.5,2.7c-0.1,0-0.2,0-0.4,0c-0.1-0.3-0.4-0.7-0.4-1c0.5-1.7,1.1-3.4,1.8-5.1c0.5-1.3,1.1-2.5,1.6-3.8
			c0.2-0.4,0.2-0.8,0.3-1.2c-0.1,0-0.2-0.1-0.4-0.1c-0.3,0.3-0.7,0.7-0.9,1c-0.6,1.3-1,2.6-1.6,3.9c-0.2,0.5-0.5,1-0.8,1.4
			c-0.6,0.8-1.3,1.6-1.9,2.5c-0.1,0.1-0.3,0.2-0.6,0.5c-0.1-0.4-0.1-0.7-0.1-1c0.3-2.4,1-4.8,2.1-7.1c0.4-0.8,0.1-1.7,0-2.6
			c0-0.1-0.3-0.4-0.4-0.4c-0.2,0-0.5,0.2-0.6,0.4c-0.1,0.2-0.1,0.5-0.2,0.8c-0.3,1.2-0.6,2.5-0.9,3.7c-0.2,0.8-0.3,1.7-0.6,2.5
			c-0.3,0.8-0.6,1.5-1.1,2.2c-0.5,0.8-1.2,1.3-2.4,0.5c-0.4-0.3-1.2-0.2-1.8-0.3c-1.4-0.1-1.8-0.4-1.7-1.6c0.1-2.3,0.5-4.5,1.5-6.6
			c0.2-0.4,0.2-0.9,0.4-1.4c-1.1,0.1-1.5,0.7-1.7,1.3c-0.4,1.4-0.7,2.9-1.1,4.3c-0.2,0.8-0.4,1.5-0.8,2.2c-0.5,0.9-1.3,0.8-1.8-0.1
			c-0.8-1.2-1-2.5-0.7-3.8c0.4-1.7,0.8-3.5,1.1-5.2c0.1-0.5,0-1-0.1-1.5c-0.1,0-0.3,0-0.4-0.1c-0.2,0.4-0.5,0.7-0.6,1.1
			c-0.1,0.6-0.1,1.3-0.2,1.9c-0.2,1-0.4,1.9-0.7,2.9c-0.3,1-0.7,2-0.1,3c0.1,0.2,0.2,0.4,0.1,0.6c0,0.2-0.1,0.5-0.3,0.7
			c-0.1,0.1-0.6,0-0.7-0.1c-0.4-0.3-0.8-0.6-1-1.1c-0.3-0.6-0.4-1.3-0.6-1.9c0.1,0,0.2,0,0.2-0.1c0.2,0.3,0.3,0.5,0.5,0.8
			c0.1,0,0.2,0,0.3,0c0-0.3,0.1-0.7,0-0.9c-1.5-2-1.1-4.2-0.8-6.3c0-0.3-0.1-0.6-0.2-1.1c-1,0.9-1.1,1.8-1,2.7c0.1,2,0.3,4,0.5,6
			c0,0.2,0.1,0.4,0.1,0.6c-0.2,0.4-0.3,0.9-0.7,1.1c-0.8,0.3-0.7-0.4-1.1-0.8c-0.2-0.2-0.6-0.5-0.9-0.5c-2.8,0-5.6,0-8.3,0.1
			c-1.8,0-3.7,0.1-5.5,0.2c-0.9,0-1.8,0.1-2-0.9c0-0.1-0.2-0.1-0.3-0.2c-0.1,0-0.2,0-0.2,0.1c-0.5,1-1.3,0.9-2.3,0.5
			c-2.6-1.1-5.4-0.8-8.1-1c-0.7-0.1-1.3-0.2-1.9-0.3c-0.6-0.1-0.8-0.4-0.4-0.9c0.1-0.1,0.2-0.2,0.3-0.4C5.3,68.2,7.6,68.4,9.5,67.6z
			 M23.3,71.6c0.1-0.1,0.2-0.1,0.2-0.2c0-0.1,0-0.3-0.1-0.4c-1.4-2-3-3.9-3.8-6.1c0-0.1-0.4-0.3-0.5-0.2c-0.2,0.1-0.4,0.3-0.4,0.5
			c0.1,0.7,0.1,1.4,0.5,2c0.8,1.2,1.9,2.3,2.9,3.4C22.4,70.9,22.9,71.2,23.3,71.6z M28.6,62.8c-1.6,2.1-1.3,7.9,0.5,9.1
			C28.9,68.9,28.7,65.8,28.6,62.8z M83.7,95c1.2,1,4.3,1,5.5-0.1C87.3,94.6,85.6,94.9,83.7,95z"/>
	</g>
	<path class="st1" d="M512.2,220.5c15.1-11.8,47.6-6,55.2,9.4c5,10.2,0.3,20.5-11.8,24.9c-5.3,1.9-11.2,2.6-18.6,4.2
		c3.5,5.3,7,10.6,10.8,16.3c2.2-1.5,3-1.8,3.5-2.4c4.1-4.3,9.7-6.7,15.3-3.6c3.3,1.8,5.7,6.3,6,9.7c0.5,5.5-5.1,10-11.5,11
		c-8.1,1.2-15.6-0.4-19.6-6.3c-4.7-7.1-7.9-15-11.3-22.6c-1.3-2.9-2.1-5.4-6.6-4.6c-1.1,6.9-1.8,13.9-3.5,20.6
		c-0.9,3.6-2.6,7.4-5.4,10.1c-2.1,2-7.1,3.8-9.8,3c-3-0.9-6.3-4.6-6.6-7.2c-0.4-3.9,1.3-8.2,3.2-11.8c5.1-9.8,8.6-19.7,7.8-30.5
		c-0.4-6.1-2.5-11.3-7.7-15.8c-2.7-2.3-7-5.1-2.8-8.5c4-3.2,7.9-0.5,11.1,2C510.7,218.9,511.2,219.5,512.2,220.5z M517.8,228.9
		c0.9,3.1,1.9,6.2,2.6,9.3c2.7,11.2,2.7,11.2,16.7,11.3c1.8,0,3.6,0,5.4-0.1c9-0.8,14.7-5.4,14.6-11.6c-0.1-6.8-5.7-11.3-15-11.8
		c-2.7-0.1-5.4,0.2-8.1,0.6C528.8,227.2,523.6,228,517.8,228.9z"/>
	<path class="st2" d="M254.9,223.5c15-11.8,33.9-12.5,46.9-2.5c12.3,9.5,11.9,26.5-5.2,31.1c-1,0.3-1.8,0.9-3.2,1.6
		c1.5,1.2,2.6,2.1,3.7,2.9c7.6,5.7,10.1,13.4,6.6,20.9c-3.5,7.6-11,10.6-20.2,11.1c-9.5,0.6-18.4-1.1-25.9-6.4
		c-0.6,0.6-1,1.1-1.3,1.5c-4.8,5.8-9.5,7.5-14.4,5.3c-4.8-2.2-5.8-7.5-3.5-13.6c3.7-9.8,7.6-19.6,9.8-29.6
		c1.9-8.5-0.7-16.7-8.7-23.3c-1.7-1.4-1.1-4.8-1.6-7.2c3.3,0.3,7.1-0.1,9.7,1.2C250.6,218,252.4,221,254.9,223.5z M277,250
		c0.1,0.2,0.1,0.4,0.2,0.6c4.8-0.9,9.8-1.4,14.3-2.9c6.6-2.2,8.8-6.5,7.5-12.3c-1.2-5.1-5.7-8.1-12.4-8.7
		c-9.3-0.8-15.5,3.6-22.3,7.9c-5.5,3.5-4,7.8-2.7,11.6c0.6,1.7,5.6,2.5,8.7,3.3C272.4,250,274.8,249.8,277,250z M260.2,275.8
		c4,1.1,7.7,2.7,11.6,3.2c4.5,0.7,9.4,1.1,13.9,0.5c5.2-0.7,8.8-3.7,9.5-8.4c0.8-5-0.9-9.6-6.5-11.3c-8.2-2.4-17-3.7-25.8-5.4
		C261.8,262.5,261,269,260.2,275.8z"/>
	<path class="st2" d="M405.6,252.1c-0.9,5-1.3,10.1-2.9,14.9c-5.8,17.2-21.6,24.9-46.4,23c-19.2-1.5-34-14.3-35.6-31.1
		c-0.4-4.7-0.5-9.5,0.4-14c5.2-26.5,37.4-39,65.7-25.8c12.1,5.6,16.5,14.9,17.9,25.7c0.3,2.4,0,4.9,0,7.3
		C405.1,252,405.3,252,405.6,252.1z M395.9,253.4c-0.3-3.9-0.4-6.9-0.9-9.9c-1.5-9.7-9.2-17-19.5-18.7c-11.7-2-23.5,2.5-29.2,11.3
		c-6.3,9.8-7.4,20-2.5,30.4c4.3,9.2,14.5,14.6,26,14c11.4-0.5,20.5-6.4,23.7-15.8C394.9,260.7,395.2,256.6,395.9,253.4z"/>
	<path class="st1" d="M436.9,256.2c-3.4-1.1-6.1-1.8-8.7-2.8c-11-3.8-15.3-12.5-10.7-21.7c0.8-1.5,1.8-3,3-4.4
		c12.4-14.8,43.6-17.5,59-4.8c3.1,2.6,5.6,6.5,6.5,10.1c1.5,6.4-3.5,9.3-10.6,6.5c-4-1.6-7.4-4.5-11.5-5.9
		c-6.5-2.2-13.4-4.6-20.3-4.9c-4.1-0.2-9.4,2.7-12.4,5.5c-6.2,5.9-3.4,13.5,5.7,15.4c6.8,1.5,14.2,1,21.4,1.5
		c4.1,0.3,9.5-2,11.2,3.1c0.1,0.4-6.7,3.1-10.5,3.4c-14.5,1.4-21,5.9-20.7,15.1c0.2,4.5,3.2,7.5,7.8,8.1c5.5,0.7,11.3,0,17-0.5
		c0.6,0,0.4-2.9,1.3-4c1.9-2.5,3.7-5.8,6.6-7c2.2-0.9,7.3,0.2,8.9,1.9c2,2.1,3.1,6.3,1.9,8.6c-1.6,3.1-5.3,6.2-9.1,7.7
		c-10.2,4-21.1,4.1-31.7,1c-14.8-4.3-18.8-17.1-9-27.4C433.6,259.5,435,258.1,436.9,256.2z"/>
	<path class="st2" d="M132,105.8c-13.4-19.5-6.7-37.3,7.1-54.3c2.8-3.4,6.2-6.6,9.3-9.8c1.1-1.2,2.1-2.3,3.2-3.5
		c15.8-4.5,31.5-9.1,48.5-13.9c-1.1-2.3-3.9-5.4-3.7-8.3c0.3-5.1,0.6-12.5,4.4-14.5c4-2.1,13.9-0.8,17.8,2.2
		c5.6,4.3,10,11.1,11.5,17.5c1.8,7.4,6.4,10.7,13.8,13.8c17.3,7,27.2,18.8,28.8,34.8c0.9,8.8-3.3,16.6-14.2,18.1
		c-5.7,0.8-14.8-1.9-18-5.6c-5-5.8,1.1-10.3,8.2-12.8c1.6-0.6,3.3-1.1,7.4-2.4c-7.3-7.6-13.7-14.3-21.8-22.7
		c-3,6.6-4.5,10.5-6.6,14.1C221.4,69.2,210,74,196.2,71.6c-9.8-1.7-16.1-6.7-14.4-15.2c1.8-8.8,9.4-11.4,19.6-8.8
		c1.7,0.4,3.4,0.5,5.2,0.7c0.9-0.9,1.8-1.8,2.7-2.7c-2.6-1.9-5.1-5.4-7.8-5.5c-26.4-1.4-55.2,20.9-55.7,42.6c0.6,0.5,1.2,1.1,2,1.5
		c6.2,3.6,14.2,6.3,18,11.2c2,2.7-1.7,12.1-5.3,13.3c-6.7,2.2-15.1,0.6-22.9,0.5c-1.2,0-2.4-1-3.6-1.5
		C133.3,107,132.6,106.4,132,105.8z"/>
	<path class="st2" d="M684.6,142.5c-8.3,14.4-19.8,25.8-39.9,28.3c-11.1,1.4-22-0.3-27.5-8.8c-2.8-4.5-3.2-12.6-0.1-16.4
		c3.2-3.7,12.9-6.4,18.6-5.4c19.8,3.5,23.8,2.2,29.8-15.3c-13.1-3.2-24.9-8.5-36.4,4.7c-8.5,9.8-23.2,12.9-37.1,8
		c-6.1-2.2-11.8-8-14.4-13.2c-1.3-2.6,4.4-10.6,8.1-11.2c6.7-1.1,14.4,1.1,21.4,2.8c2.5,0.6,4.2,3.8,7,6.5c4.3-2.5,7.8-4.5,12.2-7
		c-2.9-2.6-6-4.2-6.8-6.4c-1.9-4.9-5.8-11.9-3.3-14.7c5.6-6.5,12.7-1.8,18.6,2.1c7.1,4.8,14.4,9.4,20.3,13.2
		c1.6-7.2,2.8-13,4.1-18.8c9.1,4.4,18.2,8.8,27.2,13.2c-0.4,1.1-0.9,2.2-1.3,3.4c5.2-2.9,10.1-6.5,15.8-8.5
		c3.5-1.2,8.1-0.1,12.3-0.1c-0.1,3.5,1.5,8.4-0.7,10.3c-4.7,4.3-11.6,6.8-17.2,10.5c-2.8,1.9-5.4,4.5-6.7,7.2
		c-0.6,1.2,1.9,5.1,3.1,5.1c3.8,0.1,7.8-0.7,11.4-1.8c1.9-0.6,3.1-2.7,4.6-4.1c6.3-5.6,13.8-7.3,20-0.9c6,6.2,3,13.3-4.6,16.4
		c-6.8,2.9-15.4,3.4-23.3,3.8C695.1,145.7,690.2,143.7,684.6,142.5z"/>
	<path class="st1" d="M406.6,76.2c-0.1,21.9-7,42-24.6,58.8c-15.6,14.9-38.6,18.4-55.3,9.1c-13.5-7.6-17.1-20.1-8.5-29.3
		c9.5-10.1,23.1-11.2,35.3-1.7c7.2,5.6,11.4,3.8,16.9-1c11.8-10.4,13.9-27.8,3.9-44.8c-5.4-9.2-12.6-17.6-18.6-26.5
		c-10-15.1-8.9-26.1,2.5-31.2c11.3-5,24.6-0.1,32.6,15.5c8.2,16.1,13,33.4,19.3,50.2C409.1,75.5,407.9,75.9,406.6,76.2z"/>
	<path class="st2" d="M193.7,146c-6-4.4-12.5-8.5-17.9-13.3c-3.6-3.2-7.7-7.6-7.9-11.5c-0.2-4.8,3.4-9.8,5.3-14.7
		c5.1,2.3,11.9,3.6,14.8,7.2c7.4,9,12.9,19.2,27.8,22.2c7.3-7.3,11.4-15.2,6.3-24c-5-8.6-15-8.7-24.9-8.1c-1.8,0.1-3.6,0.1-5.5,0.2
		c-9.2,0.6-18.3-1.9-18-9.8c0.2-5.3,6.5-12.6,12.5-15c13.9-5.8,28.7-3.8,41.1,4.3c13.2,8.6,18.3,20.4,16.3,34.2
		c-0.5,3.6-1.9,7.2-2.6,9.3c5.9,0.8,11.2,1.6,16.6,2.3c-2.2,5.7-2.4,14.6-6.9,16.5c-19.8,8.3-40.5,15.6-61.6,21.2
		c-12.4,3.3-26.3,0.8-35-8.2c-3.9-4.1-5.9-12.5-3.5-17c3.8-7,12.6-5.2,20.1-1.6c6.8,3.2,14,5.9,21,8.9
		C192.3,148.1,193,147.1,193.7,146z"/>
	<path class="st2" d="M661.1,69.1c-22.9,16.8-49.1,24-78.5,18.3c-9.4-1.8-19.5-7.4-25.2-13.8c-3.7-4.2-2.9-14.2,0.8-19.1
		c5-6.8,14.6-4.1,21.8,0.1c4.1,2.4,7.7,5.3,11.3,8.2c15,11.7,30.2,12.8,46.4,2.4c6.8-4.3,12.2-10.1,18.6-15
		c5.8-4.5,10.6-4.4,12.5,2.9c4.4,17.4,30.5,25.4,48.4,15.1c5.4-3.1,11.9-6,18.2-6.7c4.4-0.5,11.7,2.1,13.6,5.1
		c2.2,3.5,1.9,11-1,13.2c-6.3,4.7-14.8,9.1-22.9,10.1C699.7,93,679.5,82.7,661.1,69.1z"/>
	<path class="st1" d="M473.6,115.4c0.8-3.3,1.5-5.8,2.1-8.4c2.1-8.3,8-13,18.3-11.7c11.6,1.4,15.8,8.4,15.3,17.3
		c-0.7,12.5-13.3,23.3-29,24.9c-19.1,2-33.9-4.2-44.4-17.4c-16.1-20.3-10-53,12.7-68.3c6.5-4.4,14.1-8.6,22-2.8
		c8,5.9,3.5,12.1-0.9,18.3c-5.6,8.1-12.4,16.1-15,24.9C451.1,104.9,457.4,111.5,473.6,115.4z"/>
	<path class="st2" d="M684.2,41.8c-14.2-1.1-31.3-2.5-48.4-3.8c-0.6,0.7-1.5,1.2-1.7,1.9c-1.4,6.6-1,15-12.9,14.2
		c-11.5-0.7-11.5-8.8-13.2-16c-0.9-3.7-4.5-7.3-7.7-10.2c-4.9-4.4-12.3-7.4-15.3-12.4c-2.2-3.6,0.9-9.5,1.6-14.3
		c5.7,0.7,11.7,0.5,16.8,2.3c3.3,1.1,5.1,5.1,7.6,7.8c0.4-1.3,0.7-2.5,1.1-3.8c7.4-0.9,17.4-4.7,21.6-2.1c5.3,3.3,5.8,11.8,8.4,18.1
		c-1,1-1.9,2-2.9,3.1c15.4,2,30.7,4,43.1,5.6c4.8-8.5,6.5-16.2,12-19.6c2.9-1.9,12.4,3.5,19,5.6c-0.2,1-0.3,2.1-0.5,3.1
		c2-1.2,3.8-3.1,6-3.5c4.7-0.9,9.7-1.1,14.5-1.5c-0.4,4.5,0.5,9.5-1.7,13.2c-1.6,2.9-7.5,3.8-10.9,6.2c-3.8,2.7-7.1,6-10.5,9
		c-4.6,4.1-9.1,8.2-13.6,12.3C693.1,52.6,689.7,48.4,684.2,41.8z"/>
	<path class="st2" d="M98.1,63.3c4-7.1,8.8-15,19.8-10.3c4.1,1.7,7.9,9.9,6.5,13.7c-3.3,9-12.8,7.7-22.5,4.2 M92.2,75.2"/>
	<path class="st2" d="M151.5,38.2c-1.1,1.2-2.1,2.3-3.2,3.5c-1.4,0.1-3,0.6-4,0.2c-5.8-2.6-13.6-4.3-16.5-8.4
		c-1.8-2.5,2.2-10.3,6.2-12.8c3.4-2.1,11.9-1.4,15.7,0.8C156.9,25.6,157.5,32.1,151.5,38.2z"/>
	<path class="st2" d="M132,105.8c0.7,0.6,1.4,1.2,2.1,1.8c1.4,8.4,1.7,17.1-12,17c-4,0-11.5-6.4-11.3-9.6
		C111.5,103.9,121.9,104.3,132,105.8z"/>
</g>
</svg>
