<?xml version="1.0" encoding="utf-8"?>
<!-- Generator: Adobe Illustrator 21.1.0, SVG Export Plug-In . SVG Version: 6.00 Build 0)  -->
<svg version="1.1" id="图层_1" xmlns="http://www.w3.org/2000/svg" xmlns:xlink="http://www.w3.org/1999/xlink" x="0px" y="0px"
	 viewBox="0 0 306 147" style="enable-background:new 0 0 306 147;" xml:space="preserve">
<style type="text/css">
	.st0{fill:#DD2525;}
	.st1{fill:#E45826;}
	.st2{fill:#69B72D;}
</style>
<g>
	<g>
		<path class="st0" d="M17.1,52.7c-0.1,0.1-0.3,0.2-0.4,0.3c-0.2,0.3-0.5,0.2-0.6,0c-0.3-0.4-0.6-0.8-0.9-1.3
			c-0.2-0.4-0.5-0.8-0.9-1.1c-0.1,0-0.1-0.1-0.1-0.1c-0.1-0.6-0.6-0.9-1-1.4c-0.2-0.2-0.3-0.5,0-0.7c0.1-0.1,0.3-0.1,0.4-0.1
			c0.2,0.1,0.4,0,0.5-0.1c0.2-0.1,0.5-0.3,0.8-0.3c0.9,0,1.9,0,2.8,0.3c-0.2,0.4-0.5,0.7-0.9,1c-0.4,0.2-0.5,0.4-0.3,0.8
			c0.1,0.2,0.2,0.3,0.4,0.1c0.1-0.1,0.3-0.2,0.4-0.4c0.3-0.4,0.5-0.8,0.7-1.2c0.1-0.2,0.3-0.2,0.5-0.2c0.4,0.1,0.8,0.3,1.2,0.4
			c-0.3,0.7-1.3,0.8-1.5,1.5c0.3,0.1,0.5,0,0.7-0.2c0.2-0.2,0.5-0.5,0.7-0.7c0.3-0.3,0.6-0.6,1.2-0.5c0.1,0,0.3,0.1,0.4,0.2
			c-0.1,0.1-0.1,0.2-0.2,0.3c-0.7,0.7-1.2,1.4-1.6,2.2c-0.1,0.2-0.1,0.4-0.1,0.6c0.1,0,0.1,0,0.2,0c0.1-0.2,0.2-0.3,0.3-0.5
			c0.3-1,1-1.7,1.9-2.3c0.1-0.1,0.3-0.1,0.4-0.1c0.5,0.1,0.9,0.3,1.4,0.4c0.5,0.2,0.5,0.3,0.1,0.5c-0.6,0.4-1.2,0.8-1.8,1.3
			c-0.9,0.7-1.2,1.6-1.3,2.6c0,0.1,0,0.1,0,0.3c0.1-0.2,0.2-0.3,0.3-0.4c0.6-0.8,1.2-1.7,1.8-2.5c0.2-0.2,0.5-0.4,0.7-0.6
			c0.7-0.5,1.9-0.4,2.5,0.2c0.7,0.6,0.7,0.6,0.2,1.4c-0.1,0.1-0.1,0.2-0.1,0.4c0.1-0.1,0.2-0.1,0.3-0.2c0.1-0.1,0.2-0.3,0.4-0.4
			c0.1-0.1,0.2-0.1,0.4-0.1c0,0.1,0.1,0.3,0,0.4c-0.1,0.2-0.3,0.4-0.4,0.6c-0.1,0.1-0.2,0.2-0.3,0.3c0,0,0.1,0.1,0.1,0.1
			c0.3-0.3,0.7-0.6,0.9-0.9c0.3,0.1,0.5,0.2,0.6,0.2c0.4,0.1,0.5,0.4,0.6,0.7c0,0.3,0,0.6-0.1,0.8c0,0.1,0,0.2,0,0.3
			c0,0,0.1,0,0.1,0c0.1-0.1,0.3-0.3,0.4-0.4c0.2-0.2,0.4-0.4,0.6-0.6c0.2-0.2,0.5-0.2,0.6,0.1c0.1,0.3,0.6,0.4,0.3,0.8
			c0.1,0,0.1,0,0.2,0c0.1-0.1,0.2-0.2,0.2-0.3c0.1-0.2,0.2-0.3,0.5-0.3c0.3,0,0.6,0,0.8,0.1c0.5,0.2,0.9,0.2,1.4,0.1
			c0.4-0.1,0.9-0.1,1.2,0.5c0.2-0.1,0.3-0.2,0.5-0.2c0.4-0.1,0.6,0,0.6,0.4c0.1,1-0.3,1.9-0.8,2.8c-0.2,0.4-0.6,0.8-0.9,1.2
			c-0.2,0.2-0.4,0.4-0.1,0.8c0.1-0.2,0.3-0.3,0.3-0.4c0.7-1.4,1.5-2.7,2.2-4.1c0,0,0-0.1,0-0.1c0.2-0.5,0.2-0.5,0.7-0.2
			c0.8,0.4,1.7,0.8,2.4,1.3c1.2,0.8,2.6,1.5,3.6,2.4c0.5,0.5,0.9,1.1,0.8,1.8c0,0.2-0.1,0.3-0.2,0.5c-0.4-0.5,0.2-1-0.4-1.4
			c0,0.2-0.1,0.3-0.1,0.5c0,0.1,0,0.3,0,0.4c-0.1,0-0.3-0.1-0.5-0.1c-0.1,0.1-0.2,0.2-0.4,0.4c-0.4,0.3-0.8,0.4-1.3,0.2
			c-0.2-0.1-0.4-0.1-0.5,0.1c-0.3,0.4-0.8,0.3-1.2,0.3c-0.8,0-1.7,0-2.5,0.3c-0.2,0.1-0.4,0.1-0.7,0.2c0,0-0.1-0.1-0.1-0.1
			c0.2-0.3,0.3-0.5,0.5-0.8c0.2-0.4,0.5-0.8,0.7-1.3c0.2-0.4,0.1-0.7-0.2-1.1c0,0.1-0.1,0.3-0.1,0.4c-0.2,0.9-0.5,1.8-1,2.6
			c-0.2,0.3-0.4,0.4-0.8,0.5c-1.3,0-2.5,0.1-3.8,0.2c-1.1,0.1-2.2-0.1-3.3-0.4c-1-0.2-1.7-0.7-2.4-1.2c-1-0.7-2.1-1-3.2-1.3
			c-0.9-0.3-1.8-0.6-2.4-1.3c-0.2-0.3-0.4-0.6-0.6-0.9c0-0.1-0.1-0.2-0.1-0.2c-0.9-0.7-1.5-1.6-2.1-2.5c-0.2-0.2-0.3-0.5-0.5-0.7
			c-0.2-0.2-0.2-0.4,0-0.6C17.1,52.9,17.1,52.8,17.1,52.7C17.1,52.7,17.1,52.7,17.1,52.7z M21.6,55.3c0,0,0.1,0,0.1,0.1
			c0.1-0.1,0.2-0.1,0.2-0.2c0.6-0.8,1.2-1.6,1.7-2.5c0.3-0.4,0.4-0.9,0.9-1.2c0,0,0,0,0-0.1c0-0.1,0-0.2,0-0.3c-0.1,0-0.3,0-0.3,0.1
			c-0.9,1-1.7,2-2.6,3c-0.1,0.1-0.1,0.2,0,0.3c0.3,0.2,0.1,0.3,0,0.5C21.6,55.1,21.6,55.2,21.6,55.3z M31.3,57.1
			c0.1-0.1,0.1-0.2,0.2-0.2c0.2-0.5,0.3-1,0.5-1.5c0-0.2,0-0.4,0-0.5c0-0.1-0.2-0.2-0.3-0.3c-0.1,0.1-0.2,0.2-0.2,0.3
			c-0.1,0.6-0.2,1.2-0.2,1.8C31.1,56.8,31.2,56.9,31.3,57.1z M27.6,56.1C27.6,56.1,27.6,56.1,27.6,56.1C26.9,57,26.3,58,25.7,59
			c0.5,0.1,0.8-0.1,0.9-0.5c0.1-0.4,0.3-0.7,0.5-1.1C27.3,57,27.4,56.5,27.6,56.1z M30.5,57c0,0-0.1,0-0.1-0.1
			c-0.3,0.1-0.3,0.3-0.4,0.5c-0.1,0.2-0.1,0.5-0.3,0.6c-0.4,0.2-0.4,0.6-0.4,1c0,0.2,0,0.4-0.1,0.7c0,0,0.1,0,0.1,0
			C29.7,58.8,30.1,57.9,30.5,57z M33.4,60.3c0.1,0,0.1,0.1,0.2,0.1c0.1-0.1,0.2-0.3,0.3-0.4c0,0-0.1-0.1-0.1-0.1
			C33.7,60,33.6,60.2,33.4,60.3z"/>
		<path class="st0" d="M16.3,46c0.1,0.4-0.2,0.7,0.2,1c0.1-0.2,0.1-0.4,0.2-0.6c0-0.6,0.1-0.6,0.7-0.7c0.4-0.1,0.8-0.3,1-0.6
			c0.3-0.5,0.7-0.9,1.4-0.9c0.1,0,0.2-0.1,0.2-0.1c0.2-0.4,0.8-0.6,1.2-0.8c0.2-0.1,0.3-0.2,0.5-0.3c0.3-0.2,0.5-0.3,0.9-0.3
			c0.3,0,0.7-0.2,1-0.3c0.2-0.1,0.4-0.3,0.6-0.4c0.2-0.1,0.5-0.1,0.7-0.1c0.2,0,0.5-0.1,0.7-0.1c0.5,0,0.9-0.1,1.2-0.3
			c0.1-0.1,0.4-0.1,0.5,0c0.5,0.1,0.9,0.1,1.3,0c0.3-0.1,0.6-0.1,0.9-0.1c0.4,0,0.7,0,1.1-0.1c0.7-0.1,1.2,0.2,1.5,0.7
			c0.5,0.9,1.3,1.5,2.3,1.9c0.7,0.3,1.3,0.3,2,0c0.8-0.4,1.6-0.2,2.3,0.3c1.4,0.9,2.3,2.1,3.5,3.2c0.1,0.1,0.2,0.2,0.2,0.3
			c0,0.4,0.3,0.6,0.6,0.8c0.2,0.1,0.3,0.3,0.4,0.4c0,0,0,0.1,0.1,0.1c0.6,0.4,0.9,1,1.4,1.5c0.6,0.6,0.8,1.4,1.1,2.1
			c0,0.1-0.1,0.3-0.2,0.5c-0.3,0.4-0.6,0.7-0.8,1c-0.1,0.1-0.1,0.2-0.1,0.4c0.1,0,0.3,0.1,0.4,0c0.2,0,0.4-0.1,0.6-0.2
			c0.2-0.1,0.5-0.1,0.7-0.2c0,0,0,0.1,0.1,0.1c-0.1,0.1-0.3,0.2-0.4,0.2c-0.2,0.1-0.5,0.1-0.7,0.2c-0.1,0-0.2,0.2-0.3,0.3
			c0.1,0,0.3,0.1,0.4,0.1c0.2,0,0.4-0.1,0.5-0.1c0.1,0,0.2,0,0.4,0c-0.1,0.1-0.3,0.2-0.4,0.3c-0.5,0.3-0.5,0.4-0.4,0.9
			c0,0.1,0,0.2,0,0.3c0,0.2-0.1,0.3-0.2,0.6c-0.2,0.1-0.6,0.2-0.9,0.3c0,0.1,0,0.1,0,0.2c0.2,0,0.4,0,0.6,0c0.2,0,0.3-0.1,0.5-0.1
			c0.1,0,0.2,0.1,0.2,0.1c-0.1,0.1-0.1,0.2-0.2,0.2c-0.3,0.1-0.6,0.2-0.9,0.3c-0.4,0.1-0.9,0-1.2-0.3c0.1-0.1,0.3-0.1,0.5-0.2
			c-0.2-0.1-0.3-0.1-0.4-0.1c-0.2-0.1-0.4-0.1-0.6-0.2c-0.4-0.1-0.9-0.2-0.7-0.8c0.1-0.1-0.1-0.3-0.2-0.5c-0.2-0.3-0.1-0.5,0.3-0.7
			c0.3-0.1,0.5-0.1,0.8-0.1c0.2,0,0.4,0,0.4-0.2c0-0.3-0.3-0.2-0.4-0.2c-0.3,0.1-0.6,0.2-0.9,0.3c-0.5,0.2-1.1,0.2-1.4-0.2
			c-0.6-0.7-0.3-1,0.4-1.2c0.6-0.1,1.2-0.2,1.8-0.2c0.3,0,0.4-0.1,0.3-0.3c0-0.1,0-0.3,0-0.5c-0.2,0.1-0.5,0.1-0.6,0.2
			c-0.7,0.3-1.3,0.6-2,0.9c-0.7,0.3-0.7,0.3-1.2-0.2c0.1-0.1,0.2-0.1,0.2-0.2c0-0.1,0.1-0.2,0.1-0.3c-0.1,0-0.2,0-0.3,0
			c-0.2,0-0.4,0.1-0.5,0.1c-0.2-0.2-0.2-0.4-0.3-0.6c0,0,0.1-0.1,0.1-0.1c0.2,0,0.3,0.1,0.5,0.1c0.2,0,0.4,0,0.4-0.3
			c0-0.1,0.1-0.3,0.3-0.4c0.2-0.2,0.3-0.3,0.5-0.5c0,0-0.1-0.1-0.1-0.1c-0.2,0.1-0.5,0.2-0.7,0.3c-0.3,0.2-0.6,0.4-0.9,0.5
			c-0.2,0.1-0.3,0.1-0.5-0.1c-0.1-0.1-0.2-0.1-0.4-0.2c0,0.1-0.1,0.2-0.1,0.4c-0.6-0.1-0.8-0.5-0.7-1c0-0.1,0.1-0.1,0.1-0.2
			c0.2-0.3,0.5-0.5,0.6-0.8c0.3-0.8,0.8-1.4,1.4-2c0-0.1,0.1-0.1,0.1-0.2c0.1-0.2,0.2-0.4,0.1-0.5c-0.3-0.1-0.4,0.1-0.5,0.2
			c-0.6,0.9-1.3,1.7-1.9,2.6c-0.3,0.4-0.5,0.7-0.8,1.1c-0.1,0.1-0.2,0.4-0.5,0.3c-0.2-0.1-0.5-0.2-0.3-0.5c-0.2,0-0.3,0-0.5,0
			c0.1-0.1,0.2-0.1,0.2-0.2c0.1-0.1,0.2-0.2,0.3-0.3c-0.1-0.1-0.2-0.1-0.4-0.2c1-0.9,1.9-1.9,2.5-3.1c-0.4-0.1-0.6,0.1-0.7,0.3
			c-0.2,0.4-0.4,0.8-0.7,1.2c-0.2,0.3-0.4,0.6-0.6,0.9c0,0-0.1,0-0.1-0.1c0-0.1,0.1-0.2,0.1-0.3c0-0.1,0-0.2,0-0.2
			c-0.1,0-0.3,0.1-0.3,0.1c-0.2,0.3-0.4,0.6-0.5,0.8c-0.3,0.4-0.6,0.8-1.2,0.8c-0.5,0-0.7-0.1-0.5-0.6c0.4-0.9,0.8-1.8,1.3-2.7
			c0.1-0.2,0.3-0.4,0.4-0.6c0.1-0.1,0-0.2,0-0.4c-0.1,0.1-0.3,0.1-0.3,0.2c-0.5,0.9-0.9,1.8-1.4,2.7c-0.2,0.3-0.4,0.7-0.5,1
			c0,0-0.1,0-0.1,0c0-0.1-0.2-0.3-0.1-0.4c0.2-0.6,0.4-1.3,0.7-1.9c0.2-0.5,0.4-1,0.6-1.4c0.1-0.1,0.1-0.3,0.1-0.5
			c0,0-0.1,0-0.1-0.1c-0.1,0.1-0.3,0.3-0.3,0.4c-0.2,0.5-0.4,1-0.6,1.5c-0.1,0.2-0.2,0.4-0.3,0.5c-0.2,0.3-0.5,0.6-0.7,0.9
			c0,0.1-0.1,0.1-0.2,0.2c0-0.2-0.1-0.3,0-0.4c0.1-0.9,0.4-1.8,0.8-2.7c0.1-0.3,0-0.7,0-1c0-0.1-0.1-0.2-0.2-0.1
			c-0.1,0-0.2,0.1-0.2,0.1c0,0.1,0,0.2-0.1,0.3c-0.1,0.5-0.2,0.9-0.3,1.4c-0.1,0.3-0.1,0.6-0.2,1c-0.1,0.3-0.2,0.6-0.4,0.8
			c-0.2,0.3-0.4,0.5-0.9,0.2c-0.1-0.1-0.4-0.1-0.7-0.1c-0.5,0-0.7-0.1-0.6-0.6c0-0.9,0.2-1.7,0.6-2.5c0.1-0.2,0.1-0.3,0.1-0.5
			c-0.4,0-0.6,0.3-0.6,0.5c-0.1,0.5-0.3,1.1-0.4,1.6c-0.1,0.3-0.2,0.6-0.3,0.8c-0.2,0.3-0.5,0.3-0.7,0c-0.3-0.4-0.4-0.9-0.2-1.4
			c0.1-0.7,0.3-1.3,0.4-2c0-0.2,0-0.4,0-0.6c0,0-0.1,0-0.1,0c-0.1,0.1-0.2,0.3-0.2,0.4c-0.1,0.2,0,0.5-0.1,0.7
			c-0.1,0.4-0.1,0.7-0.2,1.1c-0.1,0.4-0.2,0.8,0,1.2c0,0.1,0.1,0.2,0,0.2c0,0.1,0,0.2-0.1,0.3c-0.1,0-0.2,0-0.3,0
			c-0.1-0.1-0.3-0.2-0.4-0.4c-0.1-0.2-0.1-0.5-0.2-0.7c0,0,0.1,0,0.1,0c0.1,0.1,0.1,0.2,0.2,0.3c0,0,0.1,0,0.1,0
			c0-0.1,0.1-0.3,0-0.3c-0.5-0.8-0.4-1.6-0.3-2.4c0-0.1,0-0.2-0.1-0.4c-0.4,0.3-0.4,0.7-0.4,1c0,0.8,0.1,1.5,0.2,2.3
			c0,0.1,0,0.2,0,0.2c-0.1,0.1-0.1,0.4-0.2,0.4c-0.3,0.1-0.3-0.2-0.4-0.3c-0.1-0.1-0.2-0.2-0.3-0.2c-1,0-2,0-3.1,0
			c-0.7,0-1.4,0-2,0.1c-0.3,0-0.7,0-0.7-0.3c0,0-0.1-0.1-0.1-0.1c0,0-0.1,0-0.1,0c-0.2,0.4-0.5,0.4-0.8,0.2c-0.9-0.4-2-0.3-3-0.4
			c-0.2,0-0.5-0.1-0.7-0.1c-0.2,0-0.3-0.2-0.1-0.3c0,0,0.1-0.1,0.1-0.1C14.7,46.3,15.6,46.3,16.3,46z M21.3,47.5
			C21.4,47.5,21.4,47.5,21.3,47.5c0.1-0.1,0.1-0.2,0.1-0.2c-0.5-0.8-1.1-1.5-1.4-2.3c0,0-0.2-0.1-0.2-0.1c-0.1,0-0.1,0.1-0.1,0.2
			c0,0.3,0,0.5,0.2,0.8c0.3,0.5,0.7,0.9,1,1.3C21,47.3,21.2,47.4,21.3,47.5z M23.3,44.2c-0.6,0.8-0.5,3,0.2,3.5
			C23.4,46.5,23.3,45.3,23.3,44.2z M43.5,56.4c0.5,0.4,1.6,0.4,2,0C44.8,56.3,44.2,56.4,43.5,56.4z"/>
	</g>
	<path class="st1" d="M200.6,104c5.5-4.5,17.5-2.3,20.2,3.6c1.8,3.9,0.1,7.8-4.3,9.4c-1.9,0.7-4.1,1-6.8,1.6c1.3,2,2.6,4,3.9,6.2
		c0.8-0.6,1.1-0.7,1.3-0.9c1.5-1.6,3.6-2.5,5.6-1.3c1.2,0.7,2.1,2.4,2.2,3.7c0.2,2.1-1.9,3.8-4.2,4.2c-3,0.5-5.7-0.2-7.2-2.4
		c-1.7-2.7-2.9-5.7-4.1-8.6c-0.5-1.1-0.8-2-2.4-1.7c-0.4,2.6-0.7,5.3-1.3,7.8c-0.3,1.4-1,2.8-2,3.8c-0.8,0.8-2.6,1.4-3.6,1.1
		c-1.1-0.3-2.3-1.7-2.4-2.7c-0.1-1.5,0.5-3.1,1.2-4.5c1.9-3.7,3.2-7.5,2.9-11.6c-0.2-2.3-0.9-4.3-2.8-6c-1-0.9-2.6-1.9-1-3.2
		c1.5-1.2,2.9-0.2,4.1,0.8C200,103.4,200.2,103.6,200.6,104z M202.6,107.2c0.3,1.2,0.7,2.3,1,3.5c1,4.2,1,4.3,6.1,4.3
		c0.7,0,1.3,0,2,0c3.3-0.3,5.4-2.1,5.4-4.4c0-2.6-2.1-4.3-5.5-4.5c-1-0.1-2,0.1-3,0.2C206.7,106.5,204.8,106.9,202.6,107.2z"/>
	<path class="st2" d="M106.3,105.2c5.5-4.5,12.4-4.8,17.2-0.9c4.5,3.6,4.4,10.1-1.9,11.8c-0.4,0.1-0.7,0.3-1.2,0.6
		c0.6,0.5,1,0.8,1.4,1.1c2.8,2.2,3.7,5.1,2.4,7.9c-1.3,2.9-4,4-7.4,4.2c-3.5,0.2-6.7-0.4-9.5-2.4c-0.2,0.2-0.4,0.4-0.5,0.6
		c-1.8,2.2-3.5,2.9-5.3,2c-1.8-0.8-2.1-2.9-1.3-5.2c1.4-3.7,2.8-7.4,3.6-11.2c0.7-3.2-0.3-6.3-3.2-8.8c-0.6-0.5-0.4-1.8-0.6-2.7
		c1.2,0.1,2.6,0,3.5,0.5C104.7,103.1,105.3,104.2,106.3,105.2z M114.4,115.2c0,0.1,0,0.1,0.1,0.2c1.8-0.4,3.6-0.5,5.2-1.1
		c2.4-0.8,3.2-2.5,2.7-4.7c-0.4-1.9-2.1-3.1-4.5-3.3c-3.4-0.3-5.7,1.4-8.2,3c-2,1.3-1.5,3-1,4.4c0.2,0.6,2,0.9,3.2,1.2
		C112.7,115.2,113.5,115.1,114.4,115.2z M108.2,125c1.5,0.4,2.8,1,4.3,1.2c1.7,0.2,3.4,0.4,5.1,0.2c1.9-0.3,3.2-1.4,3.5-3.2
		c0.3-1.9-0.3-3.6-2.4-4.3c-3-0.9-6.2-1.4-9.5-2.1C108.8,120,108.5,122.4,108.2,125z"/>
	<path class="st2" d="M161.5,116c-0.3,1.9-0.5,3.8-1.1,5.7c-2.1,6.5-7.9,9.5-17,8.7c-7-0.6-12.5-5.4-13-11.8
		c-0.2-1.8-0.2-3.6,0.1-5.3c1.9-10.1,13.7-14.8,24.1-9.8c4.4,2.1,6,5.7,6.6,9.7c0.1,0.9,0,1.8,0,2.8C161.3,116,161.4,116,161.5,116z
		 M157.9,116.5c-0.1-1.5-0.1-2.6-0.3-3.8c-0.6-3.7-3.4-6.4-7.1-7.1c-4.3-0.8-8.6,0.9-10.7,4.3c-2.3,3.7-2.7,7.6-0.9,11.5
		c1.6,3.5,5.3,5.5,9.5,5.3c4.2-0.2,7.5-2.4,8.7-6C157.6,119.3,157.7,117.7,157.9,116.5z"/>
	<path class="st1" d="M173,117.6c-1.2-0.4-2.2-0.7-3.2-1c-4.1-1.5-5.6-4.7-3.9-8.2c0.3-0.6,0.7-1.1,1.1-1.7c4.5-5.6,16-6.6,21.6-1.8
		c1.2,1,2.1,2.5,2.4,3.8c0.6,2.4-1.3,3.5-3.9,2.5c-1.5-0.6-2.7-1.7-4.2-2.2c-2.4-0.8-4.9-1.8-7.4-1.9c-1.5-0.1-3.4,1-4.5,2.1
		c-2.3,2.2-1.2,5.1,2.1,5.8c2.5,0.6,5.2,0.4,7.8,0.6c1.5,0.1,3.5-0.8,4.1,1.2c0,0.1-2.5,1.2-3.9,1.3c-5.3,0.5-7.7,2.2-7.6,5.7
		c0.1,1.7,1.2,2.8,2.9,3.1c2,0.3,4.2,0,6.2-0.2c0.2,0,0.2-1.1,0.5-1.5c0.7-1,1.4-2.2,2.4-2.6c0.8-0.3,2.7,0.1,3.3,0.7
		c0.7,0.8,1.1,2.4,0.7,3.3c-0.6,1.2-2,2.3-3.3,2.9c-3.7,1.5-7.7,1.6-11.6,0.4c-5.4-1.6-6.9-6.5-3.3-10.4
		C171.8,118.8,172.3,118.3,173,117.6z"/>
	<path class="st2" d="M61.2,60.5c-4.9-7.4-2.4-14.1,2.6-20.6c1-1.3,2.3-2.5,3.4-3.7c0.4-0.4,0.8-0.9,1.2-1.3
		c5.8-1.7,11.6-3.4,17.8-5.3c-0.4-0.9-1.4-2-1.4-3.1c0.1-1.9,0.2-4.8,1.6-5.5c1.5-0.8,5.1-0.3,6.5,0.8c2.1,1.6,3.7,4.2,4.2,6.6
		c0.7,2.8,2.3,4.1,5.1,5.2c6.3,2.6,10,7.1,10.5,13.2c0.3,3.3-1.2,6.3-5.2,6.9c-2.1,0.3-5.4-0.7-6.6-2.1c-1.8-2.2,0.4-3.9,3-4.9
		c0.6-0.2,1.2-0.4,2.7-0.9c-2.7-2.9-5-5.4-8-8.6c-1.1,2.5-1.7,4-2.4,5.3c-2.2,4.1-6.4,6-11.5,5c-3.6-0.7-5.9-2.6-5.3-5.8
		c0.7-3.3,3.4-4.3,7.2-3.4c0.6,0.2,1.3,0.2,1.9,0.3c0.3-0.3,0.7-0.7,1-1c-0.9-0.7-1.9-2-2.9-2.1c-9.7-0.5-20.2,7.9-20.4,16.2
		c0.2,0.2,0.5,0.4,0.7,0.6c2.3,1.4,5.2,2.4,6.6,4.2c0.7,1-0.6,4.6-2,5c-2.4,0.8-5.6,0.2-8.4,0.2c-0.4,0-0.9-0.4-1.3-0.6
		C61.7,61,61.4,60.7,61.2,60.5z"/>
	<path class="st2" d="M263.8,74.4c-3.1,5.5-7.3,9.8-14.6,10.8c-4.1,0.5-8.1-0.1-10.1-3.3c-1-1.7-1.2-4.8,0-6.2
		c1.2-1.4,4.7-2.4,6.8-2c7.2,1.3,8.7,0.8,10.9-5.8c-4.8-1.2-9.1-3.2-13.4,1.8c-3.1,3.7-8.5,4.9-13.6,3c-2.3-0.8-4.3-3-5.3-5
		c-0.5-1,1.6-4,3-4.2c2.5-0.4,5.3,0.4,7.9,1.1c0.9,0.2,1.5,1.4,2.5,2.5c1.6-0.9,2.9-1.7,4.5-2.6c-1.1-1-2.2-1.6-2.5-2.4
		c-0.7-1.9-2.1-4.5-1.2-5.6c2.1-2.5,4.7-0.7,6.8,0.8c2.6,1.8,5.3,3.5,7.4,5c0.6-2.7,1-4.9,1.5-7.1c3.3,1.7,6.7,3.3,10,5
		c-0.2,0.4-0.3,0.9-0.5,1.3c1.9-1.1,3.7-2.4,5.8-3.2c1.3-0.5,3,0,4.5,0c0,1.3,0.5,3.2-0.3,3.9c-1.7,1.6-4.3,2.6-6.3,4
		c-1,0.7-2,1.7-2.5,2.7c-0.2,0.5,0.7,1.9,1.1,1.9c1.4,0,2.9-0.3,4.2-0.7c0.7-0.2,1.1-1,1.7-1.6c2.3-2.1,5-2.8,7.3-0.4
		c2.2,2.3,1.1,5-1.7,6.2c-2.5,1.1-5.6,1.3-8.5,1.5C267.7,75.7,265.9,74.9,263.8,74.4z"/>
	<path class="st1" d="M161.9,49.3c0,8.3-2.6,15.9-9,22.3c-5.7,5.6-14.1,7-20.3,3.4c-5-2.9-6.3-7.6-3.1-11.1c3.5-3.8,8.5-4.3,13-0.7
		c2.6,2.1,4.2,1.4,6.2-0.4c4.3-3.9,5.1-10.5,1.4-17c-2-3.5-4.6-6.7-6.8-10.1c-3.7-5.7-3.3-9.9,0.9-11.9c4.1-1.9,9,0,12,5.9
		c3,6.1,4.8,12.7,7.1,19C162.8,49,162.3,49.1,161.9,49.3z"/>
	<path class="st2" d="M83.8,75.8c-2.2-1.7-4.6-3.2-6.6-5.1c-1.3-1.2-2.8-2.9-2.9-4.4c-0.1-1.8,1.2-3.7,2-5.6
		c1.9,0.9,4.4,1.4,5.4,2.7c2.7,3.4,4.7,7.3,10.2,8.4c2.7-2.8,4.2-5.8,2.3-9.1c-1.8-3.3-5.5-3.3-9.1-3.1c-0.7,0-1.3,0-2,0.1
		c-3.4,0.2-6.7-0.7-6.6-3.7c0.1-2,2.4-4.8,4.6-5.7c5.1-2.2,10.5-1.4,15.1,1.6c4.8,3.3,6.7,7.8,6,13c-0.2,1.4-0.7,2.7-0.9,3.5
		c2.2,0.3,4.1,0.6,6.1,0.9c-0.8,2.2-0.9,5.6-2.5,6.3c-7.3,3.2-14.8,5.9-22.6,8c-4.5,1.2-9.7,0.3-12.8-3.1c-1.4-1.5-2.2-4.7-1.3-6.4
		c1.4-2.7,4.6-2,7.4-0.6c2.5,1.2,5.1,2.3,7.7,3.4C83.3,76.5,83.6,76.2,83.8,75.8z"/>
	<path class="st2" d="M255.2,46.6c-8.4,6.4-18,9.1-28.8,7c-3.4-0.7-7.1-2.8-9.2-5.2c-1.4-1.6-1.1-5.4,0.3-7.3c1.8-2.6,5.4-1.6,8,0.1
		c1.5,0.9,2.8,2,4.2,3.1c5.5,4.4,11.1,4.8,17,0.9c2.5-1.6,4.5-3.8,6.8-5.7c2.1-1.7,3.9-1.7,4.6,1.1c1.6,6.6,11.2,9.6,17.8,5.7
		c2-1.2,4.3-2.3,6.7-2.5c1.6-0.2,4.3,0.8,5,2c0.8,1.3,0.7,4.2-0.4,5c-2.3,1.8-5.4,3.5-8.4,3.8C269.3,55.7,261.9,51.7,255.2,46.6z"/>
	<path class="st1" d="M186.4,64.2c0.3-1.2,0.5-2.2,0.8-3.2c0.8-3.1,2.9-4.9,6.7-4.4c4.2,0.5,5.8,3.2,5.6,6.6
		c-0.3,4.8-4.9,8.8-10.6,9.5c-7,0.8-12.4-1.6-16.3-6.6c-5.9-7.7-3.7-20.1,4.7-25.9c2.4-1.7,5.2-3.3,8.1-1c2.9,2.2,1.3,4.6-0.3,7
		c-2.1,3.1-4.5,6.1-5.5,9.5C178.2,60.1,180.5,62.7,186.4,64.2z"/>
	<path class="st2" d="M263.7,36.2c-5.2-0.4-11.5-0.9-17.7-1.4c-0.2,0.3-0.6,0.5-0.6,0.7c-0.5,2.5-0.4,5.7-4.7,5.4
		c-4.2-0.3-4.2-3.3-4.8-6.1c-0.3-1.4-1.6-2.8-2.8-3.9c-1.8-1.7-4.5-2.8-5.6-4.7c-0.8-1.4,0.3-3.6,0.6-5.4c2.1,0.3,4.3,0.2,6.2,0.9
		c1.2,0.4,1.9,1.9,2.8,3c0.1-0.5,0.3-1,0.4-1.4c2.7-0.4,6.4-1.8,7.9-0.8c1.9,1.3,2.1,4.5,3.1,6.9c-0.3,0.4-0.7,0.8-1,1.2
		c5.6,0.8,11.3,1.5,15.8,2.1c1.7-3.2,2.4-6.1,4.4-7.5c1.1-0.7,4.6,1.3,7,2.1c-0.1,0.4-0.1,0.8-0.2,1.2c0.7-0.5,1.4-1.2,2.2-1.3
		c1.7-0.3,3.5-0.4,5.3-0.6c-0.2,1.7,0.2,3.6-0.6,5c-0.6,1.1-2.8,1.5-4,2.4c-1.4,1-2.6,2.3-3.8,3.4c-1.7,1.5-3.3,3.1-5,4.7
		C266.9,40.3,265.7,38.7,263.7,36.2z"/>
	<path class="st2" d="M48.8,44.4c1.5-2.7,3.2-5.7,7.3-3.9c1.5,0.7,2.9,3.7,2.4,5.2c-1.2,3.4-4.7,2.9-8.3,1.6 M46.6,48.9"/>
	<path class="st2" d="M68.3,34.9c-0.4,0.4-0.8,0.9-1.2,1.3c-0.5,0-1.1,0.2-1.5,0.1c-2.1-1-5-1.6-6.1-3.2c-0.7-1,0.8-3.9,2.3-4.9
		c1.2-0.8,4.4-0.5,5.8,0.3C70.3,30.1,70.5,32.6,68.3,34.9z"/>
	<path class="st2" d="M61.2,60.5c0.3,0.2,0.5,0.5,0.8,0.7c0.5,3.2,0.6,6.5-4.4,6.5c-1.5,0-4.2-2.4-4.1-3.6
		C53.7,59.8,57.5,59.9,61.2,60.5z"/>
</g>
</svg>
