<?xml version="1.0" encoding="utf-8"?>
<!-- Generator: Adobe Illustrator 21.1.0, SVG Export Plug-In . SVG Version: 6.00 Build 0)  -->
<svg version="1.1" id="图层_1" xmlns="http://www.w3.org/2000/svg" xmlns:xlink="http://www.w3.org/1999/xlink" x="0px" y="0px"
	 viewBox="0 0 548 538" style="enable-background:new 0 0 548 538;" xml:space="preserve">
<style type="text/css">
	.st0{opacity:0.5;fill:#CBE4C1;}
	.st1{fill:#DE2525;}
	.st2{fill:#E55927;}
	.st3{fill:#6AB82D;}
</style>
<polygon class="st0" points="0.1,536.6 548.1,548 548.1,0 "/>
<g>
	<g>
		<path class="st1" d="M224.6,252.4c-0.1,0.1-0.3,0.2-0.4,0.3c-0.2,0.3-0.5,0.2-0.6,0c-0.3-0.4-0.6-0.8-0.9-1.3
			c-0.2-0.4-0.5-0.8-0.9-1.1c-0.1,0-0.1-0.1-0.1-0.1c-0.1-0.6-0.6-0.9-1-1.4c-0.2-0.2-0.3-0.5,0-0.7c0.1-0.1,0.3-0.1,0.4-0.1
			c0.2,0.1,0.4,0,0.5-0.1c0.2-0.1,0.5-0.3,0.8-0.3c0.9,0,1.9,0,2.8,0.3c-0.2,0.4-0.5,0.7-0.9,1c-0.4,0.2-0.5,0.4-0.3,0.8
			c0.1,0.2,0.2,0.3,0.4,0.1c0.1-0.1,0.3-0.2,0.4-0.4c0.3-0.4,0.5-0.8,0.7-1.2c0.1-0.2,0.3-0.2,0.5-0.2c0.4,0.1,0.8,0.3,1.2,0.4
			c-0.3,0.7-1.3,0.8-1.5,1.5c0.3,0.1,0.5,0,0.7-0.2c0.2-0.2,0.5-0.5,0.7-0.7c0.3-0.3,0.6-0.6,1.2-0.5c0.1,0,0.3,0.1,0.4,0.2
			c-0.1,0.1-0.1,0.2-0.2,0.3c-0.7,0.7-1.2,1.4-1.6,2.2c-0.1,0.2-0.1,0.4-0.1,0.6c0.1,0,0.1,0,0.2,0c0.1-0.2,0.2-0.3,0.3-0.5
			c0.3-1,1-1.7,1.9-2.3c0.1-0.1,0.3-0.1,0.4-0.1c0.5,0.1,0.9,0.3,1.4,0.4c0.5,0.2,0.5,0.3,0.1,0.5c-0.6,0.4-1.2,0.8-1.8,1.3
			c-0.9,0.7-1.2,1.6-1.3,2.6c0,0.1,0,0.1,0,0.3c0.1-0.2,0.2-0.3,0.3-0.4c0.6-0.8,1.2-1.7,1.8-2.5c0.2-0.2,0.5-0.4,0.7-0.6
			c0.7-0.5,1.9-0.4,2.5,0.2c0.7,0.6,0.7,0.6,0.2,1.4c-0.1,0.1-0.1,0.2-0.1,0.4c0.1-0.1,0.2-0.1,0.3-0.2c0.1-0.1,0.2-0.3,0.4-0.4
			c0.1-0.1,0.2-0.1,0.4-0.1c0,0.1,0.1,0.3,0,0.4c-0.1,0.2-0.3,0.4-0.4,0.6c-0.1,0.1-0.2,0.2-0.3,0.3c0,0,0.1,0.1,0.1,0.1
			c0.3-0.3,0.7-0.6,0.9-0.9c0.3,0.1,0.5,0.2,0.6,0.2c0.4,0.1,0.5,0.4,0.6,0.7c0,0.3,0,0.6-0.1,0.8c0,0.1,0,0.2,0,0.3
			c0,0,0.1,0,0.1,0c0.1-0.1,0.3-0.3,0.4-0.4c0.2-0.2,0.4-0.4,0.6-0.6c0.2-0.2,0.5-0.2,0.6,0.1c0.1,0.3,0.6,0.4,0.3,0.8
			c0.1,0,0.1,0,0.2,0c0.1-0.1,0.2-0.2,0.2-0.3c0.1-0.2,0.2-0.3,0.5-0.3c0.3,0,0.6,0,0.8,0.1c0.5,0.2,0.9,0.2,1.4,0.1
			c0.4-0.1,0.9-0.1,1.2,0.5c0.2-0.1,0.3-0.2,0.5-0.2c0.4-0.1,0.6,0,0.6,0.4c0.1,1-0.3,1.9-0.8,2.8c-0.2,0.4-0.6,0.8-0.9,1.2
			c-0.2,0.2-0.4,0.4-0.1,0.8c0.1-0.2,0.3-0.3,0.3-0.4c0.7-1.4,1.5-2.7,2.2-4.1c0,0,0-0.1,0-0.1c0.2-0.5,0.2-0.5,0.7-0.2
			c0.8,0.4,1.7,0.8,2.4,1.3c1.2,0.8,2.6,1.5,3.6,2.4c0.5,0.5,0.9,1.1,0.8,1.8c0,0.2-0.1,0.3-0.2,0.5c-0.4-0.5,0.2-1-0.4-1.4
			c0,0.2-0.1,0.3-0.1,0.5c0,0.1,0,0.3,0,0.4c-0.1,0-0.3-0.1-0.5-0.1c-0.1,0.1-0.2,0.2-0.4,0.4c-0.4,0.3-0.8,0.4-1.3,0.2
			c-0.2-0.1-0.4-0.1-0.5,0.1c-0.3,0.4-0.8,0.3-1.2,0.3c-0.8,0-1.7,0-2.5,0.3c-0.2,0.1-0.4,0.1-0.7,0.2c0,0-0.1-0.1-0.1-0.1
			c0.2-0.3,0.3-0.5,0.5-0.8c0.2-0.4,0.5-0.8,0.7-1.3c0.2-0.4,0.1-0.7-0.2-1.1c0,0.1-0.1,0.3-0.1,0.4c-0.2,0.9-0.5,1.8-1,2.6
			c-0.2,0.3-0.4,0.4-0.8,0.5c-1.3,0-2.5,0.1-3.8,0.2c-1.1,0.1-2.2-0.1-3.3-0.4c-1-0.2-1.7-0.7-2.4-1.2c-1-0.7-2.1-1-3.2-1.3
			c-0.9-0.3-1.8-0.6-2.4-1.3c-0.2-0.3-0.4-0.6-0.6-0.9c0-0.1-0.1-0.2-0.1-0.2c-0.9-0.7-1.5-1.6-2.1-2.5c-0.2-0.2-0.3-0.5-0.5-0.7
			c-0.2-0.2-0.2-0.4,0-0.6C224.6,252.6,224.6,252.6,224.6,252.4C224.6,252.5,224.6,252.5,224.6,252.4z M229.1,255.1
			c0,0,0.1,0,0.1,0.1c0.1-0.1,0.2-0.1,0.2-0.2c0.6-0.8,1.2-1.6,1.7-2.5c0.3-0.4,0.4-0.9,0.9-1.2c0,0,0,0,0-0.1c0-0.1,0-0.2,0-0.3
			c-0.1,0-0.3,0-0.3,0.1c-0.9,1-1.7,2-2.6,3c-0.1,0.1-0.1,0.2,0,0.3c0.3,0.2,0.1,0.3,0,0.5C229.2,254.9,229.2,255,229.1,255.1z
			 M238.8,256.8c0.1-0.1,0.1-0.2,0.2-0.2c0.2-0.5,0.3-1,0.5-1.5c0-0.2,0-0.4,0-0.5c0-0.1-0.2-0.2-0.3-0.3c-0.1,0.1-0.2,0.2-0.2,0.3
			c-0.1,0.6-0.2,1.2-0.2,1.8C238.7,256.5,238.8,256.7,238.8,256.8z M235.1,255.9C235.1,255.8,235.1,255.8,235.1,255.9
			c-0.7,0.9-1.3,1.9-1.9,2.9c0.5,0.1,0.8-0.1,0.9-0.5c0.1-0.4,0.3-0.7,0.5-1.1C234.8,256.7,235,256.3,235.1,255.9z M238,256.7
			c0,0-0.1,0-0.1-0.1c-0.3,0.1-0.3,0.3-0.4,0.5c-0.1,0.2-0.1,0.5-0.3,0.6c-0.4,0.2-0.4,0.6-0.4,1c0,0.2,0,0.4-0.1,0.7
			c0,0,0.1,0,0.1,0C237.2,258.5,237.6,257.6,238,256.7z M241,260c0.1,0,0.1,0.1,0.2,0.1c0.1-0.1,0.2-0.3,0.3-0.4
			c0,0-0.1-0.1-0.1-0.1C241.2,259.8,241.1,259.9,241,260z"/>
		<path class="st1" d="M223.8,245.8c0.1,0.4-0.2,0.7,0.2,1c0.1-0.2,0.1-0.4,0.2-0.6c0-0.6,0.1-0.6,0.7-0.7c0.4-0.1,0.8-0.3,1-0.6
			c0.3-0.5,0.7-0.9,1.4-0.9c0.1,0,0.2-0.1,0.2-0.1c0.2-0.4,0.8-0.6,1.2-0.8c0.2-0.1,0.3-0.2,0.5-0.3c0.3-0.2,0.5-0.3,0.9-0.3
			c0.3,0,0.7-0.2,1-0.3c0.2-0.1,0.4-0.3,0.6-0.4c0.2-0.1,0.5-0.1,0.7-0.1c0.2,0,0.5-0.1,0.7-0.1c0.5,0,0.9-0.1,1.2-0.3
			c0.1-0.1,0.4-0.1,0.5,0c0.5,0.1,0.9,0.1,1.3,0c0.3-0.1,0.6-0.1,0.9-0.1c0.4,0,0.7,0,1.1-0.1c0.7-0.1,1.2,0.2,1.5,0.7
			c0.5,0.9,1.3,1.5,2.3,1.9c0.7,0.3,1.3,0.3,2,0c0.8-0.4,1.6-0.2,2.3,0.3c1.4,0.9,2.3,2.1,3.5,3.2c0.1,0.1,0.2,0.2,0.2,0.3
			c0,0.4,0.3,0.6,0.6,0.8c0.2,0.1,0.3,0.3,0.4,0.4c0,0,0,0.1,0.1,0.1c0.6,0.4,0.9,1,1.4,1.5c0.6,0.6,0.8,1.4,1.1,2.1
			c0,0.1-0.1,0.3-0.2,0.5c-0.3,0.4-0.6,0.7-0.8,1c-0.1,0.1-0.1,0.2-0.1,0.4c0.1,0,0.3,0.1,0.4,0c0.2,0,0.4-0.1,0.6-0.2
			c0.2-0.1,0.5-0.1,0.7-0.2c0,0,0,0.1,0.1,0.1c-0.1,0.1-0.3,0.2-0.4,0.2c-0.2,0.1-0.5,0.1-0.7,0.2c-0.1,0-0.2,0.2-0.3,0.3
			c0.1,0,0.3,0.1,0.4,0.1c0.2,0,0.4-0.1,0.5-0.1c0.1,0,0.2,0,0.4,0c-0.1,0.1-0.3,0.2-0.4,0.3c-0.5,0.3-0.5,0.4-0.4,0.9
			c0,0.1,0,0.2,0,0.3c0,0.2-0.1,0.3-0.2,0.6c-0.2,0.1-0.6,0.2-0.9,0.3c0,0.1,0,0.1,0,0.2c0.2,0,0.4,0,0.6,0c0.2,0,0.3-0.1,0.5-0.1
			c0.1,0,0.2,0.1,0.2,0.1c-0.1,0.1-0.1,0.2-0.2,0.2c-0.3,0.1-0.6,0.2-0.9,0.3c-0.4,0.1-0.9,0-1.2-0.3c0.1-0.1,0.3-0.1,0.5-0.2
			c-0.2-0.1-0.3-0.1-0.4-0.1c-0.2-0.1-0.4-0.1-0.6-0.2c-0.4-0.1-0.9-0.2-0.7-0.8c0.1-0.1-0.1-0.3-0.2-0.5c-0.2-0.3-0.1-0.5,0.3-0.7
			c0.3-0.1,0.5-0.1,0.8-0.1c0.2,0,0.4,0,0.4-0.2c0-0.3-0.3-0.2-0.4-0.2c-0.3,0.1-0.6,0.2-0.9,0.3c-0.5,0.2-1.1,0.2-1.4-0.2
			c-0.6-0.7-0.3-1,0.4-1.2c0.6-0.1,1.2-0.2,1.8-0.2c0.3,0,0.4-0.1,0.3-0.3c0-0.1,0-0.3,0-0.5c-0.2,0.1-0.5,0.1-0.6,0.2
			c-0.7,0.3-1.3,0.6-2,0.9c-0.7,0.3-0.7,0.3-1.2-0.2c0.1-0.1,0.2-0.1,0.2-0.2c0-0.1,0.1-0.2,0.1-0.3c-0.1,0-0.2,0-0.3,0
			c-0.2,0-0.4,0.1-0.5,0.1c-0.2-0.2-0.2-0.4-0.3-0.6c0,0,0.1-0.1,0.1-0.1c0.2,0,0.3,0.1,0.5,0.1c0.2,0,0.4,0,0.4-0.3
			c0-0.1,0.1-0.3,0.3-0.4c0.2-0.2,0.3-0.3,0.5-0.5c0,0-0.1-0.1-0.1-0.1c-0.2,0.1-0.5,0.2-0.7,0.3c-0.3,0.2-0.6,0.4-0.9,0.5
			c-0.2,0.1-0.3,0.1-0.5-0.1c-0.1-0.1-0.2-0.1-0.4-0.2c0,0.1-0.1,0.2-0.1,0.4c-0.6-0.1-0.8-0.5-0.7-1c0-0.1,0.1-0.1,0.1-0.2
			c0.2-0.3,0.5-0.5,0.6-0.8c0.3-0.8,0.8-1.4,1.4-2c0-0.1,0.1-0.1,0.1-0.2c0.1-0.2,0.2-0.4,0.1-0.5c-0.3-0.1-0.4,0.1-0.5,0.2
			c-0.6,0.9-1.3,1.7-1.9,2.6c-0.3,0.4-0.5,0.7-0.8,1.1c-0.1,0.1-0.2,0.4-0.5,0.3c-0.2-0.1-0.5-0.2-0.3-0.5c-0.2,0-0.3,0-0.5,0
			c0.1-0.1,0.2-0.1,0.2-0.2c0.1-0.1,0.2-0.2,0.3-0.3c-0.1-0.1-0.2-0.1-0.4-0.2c1-0.9,1.9-1.9,2.5-3.1c-0.4-0.1-0.6,0.1-0.7,0.3
			c-0.2,0.4-0.4,0.8-0.7,1.2c-0.2,0.3-0.4,0.6-0.6,0.9c0,0-0.1,0-0.1-0.1c0-0.1,0.1-0.2,0.1-0.3c0-0.1,0-0.2,0-0.2
			c-0.1,0-0.3,0.1-0.3,0.1c-0.2,0.3-0.4,0.6-0.5,0.8c-0.3,0.4-0.6,0.8-1.2,0.8c-0.5,0-0.7-0.1-0.5-0.6c0.4-0.9,0.8-1.8,1.3-2.7
			c0.1-0.2,0.3-0.4,0.4-0.6c0.1-0.1,0-0.2,0-0.4c-0.1,0.1-0.3,0.1-0.3,0.2c-0.5,0.9-0.9,1.8-1.4,2.7c-0.2,0.3-0.4,0.7-0.5,1
			c0,0-0.1,0-0.1,0c0-0.1-0.2-0.3-0.1-0.4c0.2-0.6,0.4-1.3,0.7-1.9c0.2-0.5,0.4-1,0.6-1.4c0.1-0.1,0.1-0.3,0.1-0.5
			c0,0-0.1,0-0.1-0.1c-0.1,0.1-0.3,0.3-0.3,0.4c-0.2,0.5-0.4,1-0.6,1.5c-0.1,0.2-0.2,0.4-0.3,0.5c-0.2,0.3-0.5,0.6-0.7,0.9
			c0,0.1-0.1,0.1-0.2,0.2c0-0.2-0.1-0.3,0-0.4c0.1-0.9,0.4-1.8,0.8-2.7c0.1-0.3,0-0.7,0-1c0-0.1-0.1-0.2-0.2-0.1
			c-0.1,0-0.2,0.1-0.2,0.1c0,0.1,0,0.2-0.1,0.3c-0.1,0.5-0.2,0.9-0.3,1.4c-0.1,0.3-0.1,0.6-0.2,1c-0.1,0.3-0.2,0.6-0.4,0.8
			c-0.2,0.3-0.4,0.5-0.9,0.2c-0.1-0.1-0.4-0.1-0.7-0.1c-0.5,0-0.7-0.1-0.6-0.6c0-0.9,0.2-1.7,0.6-2.5c0.1-0.2,0.1-0.3,0.1-0.5
			c-0.4,0-0.6,0.3-0.6,0.5c-0.1,0.5-0.3,1.1-0.4,1.6c-0.1,0.3-0.2,0.6-0.3,0.8c-0.2,0.3-0.5,0.3-0.7,0c-0.3-0.4-0.4-0.9-0.2-1.4
			c0.1-0.7,0.3-1.3,0.4-2c0-0.2,0-0.4,0-0.6c0,0-0.1,0-0.1,0c-0.1,0.1-0.2,0.3-0.2,0.4c-0.1,0.2,0,0.5-0.1,0.7
			c-0.1,0.4-0.1,0.7-0.2,1.1c-0.1,0.4-0.2,0.8,0,1.2c0,0.1,0.1,0.2,0,0.2c0,0.1,0,0.2-0.1,0.3c-0.1,0-0.2,0-0.3,0
			c-0.1-0.1-0.3-0.2-0.4-0.4c-0.1-0.2-0.1-0.5-0.2-0.7c0,0,0.1,0,0.1,0c0.1,0.1,0.1,0.2,0.2,0.3c0,0,0.1,0,0.1,0
			c0-0.1,0.1-0.3,0-0.3c-0.5-0.8-0.4-1.6-0.3-2.4c0-0.1,0-0.2-0.1-0.4c-0.4,0.3-0.4,0.7-0.4,1c0,0.8,0.1,1.5,0.2,2.3
			c0,0.1,0,0.2,0,0.2c-0.1,0.1-0.1,0.4-0.2,0.4c-0.3,0.1-0.3-0.2-0.4-0.3c-0.1-0.1-0.2-0.2-0.3-0.2c-1,0-2,0-3.1,0
			c-0.7,0-1.4,0-2,0.1c-0.3,0-0.7,0-0.7-0.3c0,0-0.1-0.1-0.1-0.1c0,0-0.1,0-0.1,0c-0.2,0.4-0.5,0.4-0.8,0.2c-0.9-0.4-2-0.3-3-0.4
			c-0.2,0-0.5-0.1-0.7-0.1c-0.2,0-0.3-0.2-0.1-0.3c0,0,0.1-0.1,0.1-0.1C222.3,246,223.1,246.1,223.8,245.8z M228.9,247.3
			C228.9,247.3,228.9,247.2,228.9,247.3c0.1-0.1,0.1-0.2,0.1-0.2c-0.5-0.8-1.1-1.5-1.4-2.3c0,0-0.2-0.1-0.2-0.1
			c-0.1,0-0.1,0.1-0.1,0.2c0,0.3,0,0.5,0.2,0.8c0.3,0.5,0.7,0.9,1,1.3C228.5,247,228.7,247.1,228.9,247.3z M230.8,243.9
			c-0.6,0.8-0.5,3,0.2,3.5C230.9,246.2,230.9,245.1,230.8,243.9z M251,256.2c0.5,0.4,1.6,0.4,2,0C252.3,256,251.7,256.1,251,256.2z"
			/>
	</g>
	<path class="st2" d="M408.1,303.8c5.5-4.5,17.5-2.3,20.2,3.6c1.8,3.9,0.1,7.8-4.3,9.4c-1.9,0.7-4.1,1-6.8,1.6c1.3,2,2.6,4,3.9,6.2
		c0.8-0.6,1.1-0.7,1.3-0.9c1.5-1.6,3.6-2.5,5.6-1.3c1.2,0.7,2.1,2.4,2.2,3.7c0.2,2.1-1.9,3.8-4.2,4.2c-3,0.5-5.7-0.2-7.2-2.4
		c-1.7-2.7-2.9-5.7-4.1-8.6c-0.5-1.1-0.8-2-2.4-1.7c-0.4,2.6-0.7,5.3-1.3,7.8c-0.3,1.4-1,2.8-2,3.8c-0.8,0.8-2.6,1.4-3.6,1.1
		c-1.1-0.3-2.3-1.7-2.4-2.7c-0.1-1.5,0.5-3.1,1.2-4.5c1.9-3.7,3.2-7.5,2.9-11.6c-0.2-2.3-0.9-4.3-2.8-6c-1-0.9-2.6-1.9-1-3.2
		c1.5-1.2,2.9-0.2,4.1,0.8C407.6,303.1,407.8,303.4,408.1,303.8z M410.2,306.9c0.3,1.2,0.7,2.3,1,3.5c1,4.2,1,4.3,6.1,4.3
		c0.7,0,1.3,0,2,0c3.3-0.3,5.4-2.1,5.4-4.4c0-2.6-2.1-4.3-5.5-4.5c-1-0.1-2,0.1-3,0.2C414.2,306.3,412.3,306.6,410.2,306.9z"/>
	<path class="st3" d="M313.8,304.9c5.5-4.5,12.4-4.8,17.2-0.9c4.5,3.6,4.4,10.1-1.9,11.8c-0.4,0.1-0.7,0.3-1.2,0.6
		c0.6,0.5,1,0.8,1.4,1.1c2.8,2.2,3.7,5.1,2.4,7.9c-1.3,2.9-4,4-7.4,4.2c-3.5,0.2-6.7-0.4-9.5-2.4c-0.2,0.2-0.4,0.4-0.5,0.6
		c-1.8,2.2-3.5,2.9-5.3,2c-1.8-0.8-2.1-2.9-1.3-5.2c1.4-3.7,2.8-7.4,3.6-11.2c0.7-3.2-0.3-6.3-3.2-8.8c-0.6-0.5-0.4-1.8-0.6-2.7
		c1.2,0.1,2.6,0,3.5,0.5C312.2,302.8,312.9,303.9,313.8,304.9z M321.9,314.9c0,0.1,0,0.1,0.1,0.2c1.8-0.4,3.6-0.5,5.2-1.1
		c2.4-0.8,3.2-2.5,2.7-4.7c-0.4-1.9-2.1-3.1-4.5-3.3c-3.4-0.3-5.7,1.4-8.2,3c-2,1.3-1.5,3-1,4.4c0.2,0.6,2,0.9,3.2,1.2
		C320.2,314.9,321.1,314.9,321.9,314.9z M315.7,324.7c1.5,0.4,2.8,1,4.3,1.2c1.7,0.2,3.4,0.4,5.1,0.2c1.9-0.3,3.2-1.4,3.5-3.2
		c0.3-1.9-0.3-3.6-2.4-4.3c-3-0.9-6.2-1.4-9.5-2.1C316.3,319.7,316,322.2,315.7,324.7z"/>
	<path class="st3" d="M369.1,315.7c-0.3,1.9-0.5,3.8-1.1,5.7c-2.1,6.5-7.9,9.5-17,8.7c-7-0.6-12.5-5.4-13-11.8
		c-0.2-1.8-0.2-3.6,0.1-5.3c1.9-10.1,13.7-14.8,24.1-9.8c4.4,2.1,6,5.7,6.6,9.7c0.1,0.9,0,1.8,0,2.8
		C368.8,315.7,369,315.7,369.1,315.7z M365.5,316.2c-0.1-1.5-0.1-2.6-0.3-3.8c-0.6-3.7-3.4-6.4-7.1-7.1c-4.3-0.8-8.6,0.9-10.7,4.3
		c-2.3,3.7-2.7,7.6-0.9,11.5c1.6,3.5,5.3,5.5,9.5,5.3c4.2-0.2,7.5-2.4,8.7-6C365.1,319,365.2,317.4,365.5,316.2z"/>
	<path class="st2" d="M380.5,317.3c-1.2-0.4-2.2-0.7-3.2-1c-4.1-1.5-5.6-4.7-3.9-8.2c0.3-0.6,0.7-1.1,1.1-1.7
		c4.5-5.6,16-6.6,21.6-1.8c1.2,1,2.1,2.5,2.4,3.8c0.6,2.4-1.3,3.5-3.9,2.5c-1.5-0.6-2.7-1.7-4.2-2.2c-2.4-0.8-4.9-1.8-7.4-1.9
		c-1.5-0.1-3.4,1-4.5,2.1c-2.3,2.2-1.2,5.1,2.1,5.8c2.5,0.6,5.2,0.4,7.8,0.6c1.5,0.1,3.5-0.8,4.1,1.2c0,0.1-2.5,1.2-3.9,1.3
		c-5.3,0.5-7.7,2.2-7.6,5.7c0.1,1.7,1.2,2.8,2.9,3.1c2,0.3,4.2,0,6.2-0.2c0.2,0,0.2-1.1,0.5-1.5c0.7-1,1.4-2.2,2.4-2.6
		c0.8-0.3,2.7,0.1,3.3,0.7c0.7,0.8,1.1,2.4,0.7,3.3c-0.6,1.2-2,2.3-3.3,2.9c-3.7,1.5-7.7,1.6-11.6,0.4c-5.4-1.6-6.9-6.5-3.3-10.4
		C379.3,318.5,379.8,318,380.5,317.3z"/>
	<path class="st3" d="M268.7,260.2c-4.9-7.4-2.4-14.1,2.6-20.6c1-1.3,2.3-2.5,3.4-3.7c0.4-0.4,0.8-0.9,1.2-1.3
		c5.8-1.7,11.6-3.4,17.8-5.3c-0.4-0.9-1.4-2-1.4-3.1c0.1-1.9,0.2-4.8,1.6-5.5c1.5-0.8,5.1-0.3,6.5,0.8c2.1,1.6,3.7,4.2,4.2,6.6
		c0.7,2.8,2.3,4.1,5.1,5.2c6.3,2.6,10,7.1,10.5,13.2c0.3,3.3-1.2,6.3-5.2,6.9c-2.1,0.3-5.4-0.7-6.6-2.1c-1.8-2.2,0.4-3.9,3-4.9
		c0.6-0.2,1.2-0.4,2.7-0.9c-2.7-2.9-5-5.4-8-8.6c-1.1,2.5-1.7,4-2.4,5.3c-2.2,4.1-6.4,6-11.5,5c-3.6-0.7-5.9-2.6-5.3-5.8
		c0.7-3.3,3.4-4.3,7.2-3.4c0.6,0.2,1.3,0.2,1.9,0.3c0.3-0.3,0.7-0.7,1-1c-0.9-0.7-1.9-2-2.9-2.1c-9.7-0.5-20.2,7.9-20.4,16.2
		c0.2,0.2,0.5,0.4,0.7,0.6c2.3,1.4,5.2,2.4,6.6,4.2c0.7,1-0.6,4.6-2,5c-2.4,0.8-5.6,0.2-8.4,0.2c-0.4,0-0.9-0.4-1.3-0.6
		C269.2,260.7,269,260.5,268.7,260.2z"/>
	<path class="st3" d="M471.3,274.2c-3.1,5.5-7.3,9.8-14.6,10.8c-4.1,0.5-8.1-0.1-10.1-3.3c-1-1.7-1.2-4.8,0-6.2
		c1.2-1.4,4.7-2.4,6.8-2c7.2,1.3,8.7,0.8,10.9-5.8c-4.8-1.2-9.1-3.2-13.4,1.8c-3.1,3.7-8.5,4.9-13.6,3c-2.3-0.8-4.3-3-5.3-5
		c-0.5-1,1.6-4,3-4.2c2.5-0.4,5.3,0.4,7.9,1.1c0.9,0.2,1.5,1.4,2.5,2.5c1.6-0.9,2.9-1.7,4.5-2.6c-1.1-1-2.2-1.6-2.5-2.4
		c-0.7-1.9-2.1-4.5-1.2-5.6c2.1-2.5,4.7-0.7,6.8,0.8c2.6,1.8,5.3,3.5,7.4,5c0.6-2.7,1-4.9,1.5-7.1c3.3,1.7,6.7,3.3,10,5
		c-0.2,0.4-0.3,0.9-0.5,1.3c1.9-1.1,3.7-2.4,5.8-3.2c1.3-0.5,3,0,4.5,0c0,1.3,0.5,3.2-0.3,3.9c-1.7,1.6-4.3,2.6-6.3,4
		c-1,0.7-2,1.7-2.5,2.7c-0.2,0.5,0.7,1.9,1.1,1.9c1.4,0,2.9-0.3,4.2-0.7c0.7-0.2,1.1-1,1.7-1.6c2.3-2.1,5-2.8,7.3-0.4
		c2.2,2.3,1.1,5-1.7,6.2c-2.5,1.1-5.6,1.3-8.5,1.5C475.2,275.4,473.4,274.6,471.3,274.2z"/>
	<path class="st2" d="M369.4,249c0,8.3-2.6,15.9-9,22.3c-5.7,5.6-14.1,7-20.3,3.4c-5-2.9-6.3-7.6-3.1-11.1c3.5-3.8,8.5-4.3,13-0.7
		c2.6,2.1,4.2,1.4,6.2-0.4c4.3-3.9,5.1-10.5,1.4-17c-2-3.5-4.6-6.7-6.8-10.1c-3.7-5.7-3.3-9.9,0.9-11.9c4.1-1.9,9,0,12,5.9
		c3,6.1,4.8,12.7,7.1,19C370.3,248.8,369.9,248.9,369.4,249z"/>
	<path class="st3" d="M291.3,275.5c-2.2-1.7-4.6-3.2-6.6-5.1c-1.3-1.2-2.8-2.9-2.9-4.4c-0.1-1.8,1.2-3.7,2-5.6
		c1.9,0.9,4.4,1.4,5.4,2.7c2.7,3.4,4.7,7.3,10.2,8.4c2.7-2.8,4.2-5.8,2.3-9.1c-1.8-3.3-5.5-3.3-9.1-3.1c-0.7,0-1.3,0-2,0.1
		c-3.4,0.2-6.7-0.7-6.6-3.7c0.1-2,2.4-4.8,4.6-5.7c5.1-2.2,10.5-1.4,15.1,1.6c4.8,3.3,6.7,7.8,6,13c-0.2,1.4-0.7,2.7-0.9,3.5
		c2.2,0.3,4.1,0.6,6.1,0.9c-0.8,2.2-0.9,5.6-2.5,6.3c-7.3,3.2-14.8,5.9-22.6,8c-4.5,1.2-9.7,0.3-12.8-3.1c-1.4-1.5-2.2-4.7-1.3-6.4
		c1.4-2.7,4.6-2,7.4-0.6c2.5,1.2,5.1,2.3,7.7,3.4C290.9,276.3,291.1,275.9,291.3,275.5z"/>
	<path class="st3" d="M462.7,246.3c-8.4,6.4-18,9.1-28.8,7c-3.4-0.7-7.1-2.8-9.2-5.2c-1.4-1.6-1.1-5.4,0.3-7.3
		c1.8-2.6,5.4-1.6,8,0.1c1.5,0.9,2.8,2,4.2,3.1c5.5,4.4,11.1,4.8,17,0.9c2.5-1.6,4.5-3.8,6.8-5.7c2.1-1.7,3.9-1.7,4.6,1.1
		c1.6,6.6,11.2,9.6,17.8,5.7c2-1.2,4.3-2.3,6.7-2.5c1.6-0.2,4.3,0.8,5,2c0.8,1.3,0.7,4.2-0.4,5c-2.3,1.8-5.4,3.5-8.4,3.8
		C476.9,255.4,469.5,251.5,462.7,246.3z"/>
	<path class="st2" d="M394,263.9c0.3-1.2,0.5-2.2,0.8-3.2c0.8-3.1,2.9-4.9,6.7-4.4c4.2,0.5,5.8,3.2,5.6,6.6
		c-0.3,4.8-4.9,8.8-10.6,9.5c-7,0.8-12.4-1.6-16.3-6.6c-5.9-7.7-3.7-20.1,4.7-25.9c2.4-1.7,5.2-3.3,8.1-1c2.9,2.2,1.3,4.6-0.3,7
		c-2.1,3.1-4.5,6.1-5.5,9.5C385.7,259.9,388,262.4,394,263.9z"/>
	<path class="st3" d="M471.2,236c-5.2-0.4-11.5-0.9-17.7-1.4c-0.2,0.3-0.6,0.5-0.6,0.7c-0.5,2.5-0.4,5.7-4.7,5.4
		c-4.2-0.3-4.2-3.3-4.8-6.1c-0.3-1.4-1.6-2.8-2.8-3.9c-1.8-1.7-4.5-2.8-5.6-4.7c-0.8-1.4,0.3-3.6,0.6-5.4c2.1,0.3,4.3,0.2,6.2,0.9
		c1.2,0.4,1.9,1.9,2.8,3c0.1-0.5,0.3-1,0.4-1.4c2.7-0.4,6.4-1.8,7.9-0.8c1.9,1.3,2.1,4.5,3.1,6.9c-0.3,0.4-0.7,0.8-1,1.2
		c5.6,0.8,11.3,1.5,15.8,2.1c1.7-3.2,2.4-6.1,4.4-7.5c1.1-0.7,4.6,1.3,7,2.1c-0.1,0.4-0.1,0.8-0.2,1.2c0.7-0.5,1.4-1.2,2.2-1.3
		c1.7-0.3,3.5-0.4,5.3-0.6c-0.2,1.7,0.2,3.6-0.6,5c-0.6,1.1-2.8,1.5-4,2.4c-1.4,1-2.6,2.3-3.8,3.4c-1.7,1.5-3.3,3.1-5,4.7
		C474.5,240.1,473.2,238.5,471.2,236z"/>
	<path class="st3" d="M256.3,244.1c1.5-2.7,3.2-5.7,7.3-3.9c1.5,0.7,2.9,3.7,2.4,5.2c-1.2,3.4-4.7,2.9-8.3,1.6 M254.1,248.6"/>
	<path class="st3" d="M275.9,234.6c-0.4,0.4-0.8,0.9-1.2,1.3c-0.5,0-1.1,0.2-1.5,0.1c-2.1-1-5-1.6-6.1-3.2c-0.7-1,0.8-3.9,2.3-4.9
		c1.2-0.8,4.4-0.5,5.8,0.3C277.8,229.8,278.1,232.3,275.9,234.6z"/>
	<path class="st3" d="M268.7,260.2c0.3,0.2,0.5,0.5,0.8,0.7c0.5,3.2,0.6,6.5-4.4,6.5c-1.5,0-4.2-2.4-4.1-3.6
		C261.2,259.5,265,259.7,268.7,260.2z"/>
</g>
</svg>
